/* XPM */
static char *result[] = {
/* columns rows colors chars-per-pixel */
"50 50 256 2 ",
"   c black",
".  c #000001",
"X  c #010001",
"o  c #010002",
"O  c #010102",
"+  c #020102",
"@  c #020103",
"#  c #030103",
"$  c #020202",
"%  c #030104",
"&  c #040104",
"*  c #040105",
"=  c #040205",
"-  c #040206",
";  c #050206",
":  c #050207",
">  c #060207",
",  c #060208",
"<  c #060308",
"1  c #070308",
"2  c #070309",
"3  c #07030A",
"4  c #08030A",
"5  c #08030B",
"6  c #09030B",
"7  c #09040C",
"8  c #0A040C",
"9  c #0A040D",
"0  c #0B040D",
"q  c #0B040E",
"w  c #0B040F",
"e  c #0C040F",
"r  c #0C050F",
"t  c #0C0510",
"y  c #0D0510",
"u  c #0D0511",
"i  c #0E0511",
"p  c #0C0610",
"a  c #0C0611",
"s  c #0E0512",
"d  c #0E0612",
"f  c #0F0612",
"g  c #0F0613",
"h  c #0F0614",
"j  c #100614",
"k  c #100615",
"l  c #110615",
"z  c #110716",
"x  c #120716",
"c  c #120717",
"v  c #120817",
"b  c #120718",
"n  c #130718",
"m  c #130719",
"M  c #140819",
"N  c #14081A",
"B  c #15081B",
"V  c #16091D",
"C  c #17091D",
"Z  c #150B1C",
"A  c #17091E",
"S  c #170A1F",
"D  c #170B1F",
"F  c #18091F",
"G  c #180A1F",
"H  c #170C20",
"J  c #190A20",
"K  c #190A21",
"L  c #1A0A21",
"P  c #1A0A22",
"I  c #1B0A22",
"U  c #1B0A23",
"Y  c #180D21",
"T  c #1A0D23",
"R  c #1C0B24",
"E  c #1C0B25",
"W  c #1D0B25",
"Q  c #1D0B26",
"!  c #1E0C27",
"~  c #1F0C28",
"^  c #1F0D28",
"/  c #210D2A",
"(  c #210D2B",
")  c #220D2C",
"_  c #240E2F",
"`  c #240F2F",
"'  c #250E30",
"]  c #250F30",
"[  c #260F31",
"{  c #270F32",
"}  c #270F33",
"|  c #251332",
" . c #261233",
".. c #291035",
"X. c #2A1137",
"o. c #2B1137",
"O. c #2B1138",
"+. c #2C1139",
"@. c #2D113A",
"#. c #2D123A",
"$. c #2D123B",
"%. c #2E123B",
"&. c #2E123C",
"*. c #2F123D",
"=. c #2F133E",
"-. c #30133E",
";. c #31133F",
":. c #2F1940",
">. c #2F1941",
",. c #311340",
"<. c #321340",
"1. c #321441",
"2. c #331441",
"3. c #311641",
"4. c #331442",
"5. c #331542",
"6. c #331443",
"7. c #331643",
"8. c #341443",
"9. c #341543",
"0. c #341544",
"q. c #351545",
"w. c #351645",
"e. c #351646",
"r. c #361646",
"t. c #361747",
"y. c #311942",
"u. c #321942",
"i. c #321843",
"p. c #321943",
"a. c #321A43",
"s. c #321944",
"d. c #331944",
"f. c #331A44",
"g. c #331A45",
"h. c #331B45",
"j. c #341A45",
"k. c #351846",
"l. c #361847",
"z. c #341A46",
"x. c #341A47",
"c. c #351A47",
"v. c #351B47",
"b. c #361848",
"n. c #371849",
"m. c #351B48",
"M. c #361B48",
"N. c #371A49",
"B. c #361B49",
"V. c #351C48",
"C. c #351C49",
"Z. c #361C49",
"A. c #371C49",
"S. c #371C4A",
"D. c #371C4B",
"F. c #381849",
"G. c #38194A",
"H. c #39194B",
"J. c #391A4B",
"K. c #381C4B",
"L. c #39194C",
"P. c #391A4C",
"I. c #381B4C",
"U. c #3A1A4C",
"Y. c #3A1A4D",
"T. c #3B1B4F",
"R. c #381C4C",
"E. c #381D4C",
"W. c #391D4C",
"Q. c #391D4D",
"!. c #381E4D",
"~. c #391D4E",
"^. c #3A1D4E",
"/. c #3B1D4F",
"(. c #3A1E4E",
"). c #3A1E4F",
"_. c #3B1E4F",
"`. c #3C1C4F",
"'. c #3B1E50",
"]. c #3B1F50",
"[. c #3C1C50",
"{. c #3C1D51",
"}. c #3C1E51",
"|. c #3C1F51",
" X c #3E1D52",
".X c #3D1E52",
"XX c #3C1F52",
"oX c #3D1F52",
"OX c #3D1F53",
"+X c #3E1E53",
"@X c #3E1E54",
"#X c #3F1E54",
"$X c #3F1F54",
"%X c #3F1F55",
"&X c #3D2053",
"*X c #3E2054",
"=X c #3E2055",
"-X c #3F2055",
";X c #3F2155",
":X c #3F2156",
">X c #401F55",
",X c #402156",
"<X c #412057",
"1X c #402157",
"2X c #402158",
"3X c #412158",
"4X c #412159",
"5X c #422159",
"6X c #412258",
"7X c #412259",
"8X c #422259",
"9X c #42225A",
"0X c #43225A",
"qX c #42235A",
"wX c #43225B",
"eX c #43235B",
"rX c #43235C",
"tX c #44235C",
"yX c #44235D",
"uX c #44245D",
"iX c #45245D",
"pX c #45245E",
"aX c #45245F",
"sX c #46245F",
"dX c #46255F",
"fX c None",
"gX c black",
"hX c black",
"jX c black",
"kX c black",
"lX c black",
"zX c black",
"xX c black",
"cX c black",
"vX c black",
"bX c black",
"nX c black",
"mX c black",
"MX c black",
"NX c black",
"BX c black",
"VX c black",
"CX c black",
"ZX c black",
"AX c black",
"SX c black",
"DX c black",
"FX c black",
"GX c black",
"HX c black",
"JX c black",
"KX c black",
"LX c black",
"PX c black",
"IX c black",
"UX c black",
/* pixels */
"fXfXfXfXfXfXfXfXfXfXfXfXfXfXfXfXfXfXfXfXfXfXfXfXfXfXrXpXfXfXpXpXpXfXfXfXfXfXfXfXfXfXfXfXfXfXfXfXfXfX",
"fXfXfXfXfXfXfXfXfXfXfXfXfXfXfXfXpXpXpXrX1X'.A.A.Q.Q.XXiXpXpXpXpXpXpXfXfXfXfXfXfXfXfXfXfXfXfXfXfXfXfX",
"fXfXfXfXfXfXfXfXfXfXfXfXfXpXpXaXeXOXQ.K.S.&X*X*X8XiXiXaXaXaXaXaXaXpXpXpXfXfXfXfXfXfXfXfXfXfXfXfXfXfX",
"fXfXfXfXfXfXfXfXfXfXfXfXfXfX9XD.z.x.~.OXrXaXuXuX:X|.|.|.|.|.|.|.XX9XpXpXpXfXfXfXfXfXfXfXfXfXfXfXfXfX",
"fXfXfXfXfXfXfXfXfXfXfXsXeXXXB.x.(.7XpXpXyX-XS.m.g.u.p.p.p.p.p.p.p.c.|.9XpXpXpXfXpXfXfXfXfXfXfXfXfXfX",
"fXfXfXfXfXfXfXfXfXpXiX8XQ.x.(.6XpXpX8X).S.s.u.x.M.(.:X:X:X:X:X:X'.m.g.v.|.qXpXpXpXpXfXfXfXfXfXfXfXfX",
"fXfXfXfXfXfXfXfXpXpXXXv.(.6XiXsXqX_.z.p.c.].XX1X9X%X[.[.[.[.[.[.$X9XOXD.g.v.|.rXpXpXpXfXfXfXfXfXfXfX",
"fXfXfXfXfXfXfXfXfXfXp.|.iXaXiX;XS.u.v.|.9X5X@XG.r.0.2.2.2.2.2.2.0.r.F.{./.S.d.Q.tXpXpXfXfXfXfXfXfXfX",
"fXfXfXfXfXfXfXfX|.x.].iXpXiXXXd.s.].9X5XT.e.4.4.2.4.4.4.4.4.4.4.4.2.4.4.w.J./.v.~.tXpXpXfXfXfXfXfXfX",
"fXfXfXfXfXfXfX=Xx.'.iXpXiXXXd.s.|.0X`.e.4.4.4.4.4.4.4.4.4.4.4.4.4.4.4.4.4.4.w.l.i.~.tXpXpXfXfXfXfXfX",
"fXfXfXfXfXfX=Xx.'.uXpXiXoXd.s.|.0XH.4.4.4.4.4.4.4.4.4.4.4.4.4.4.4.4.4.4.4.4.4.4.5.i.^.tXpXfXfXfXfXfX",
"fXfXfXfXfX7Xv.'.uXpXiXoXd.s.|.wXL.4.4.4.4.4.4.4.4.4.6.6.4.4.4.4.4.4.6.4.4.4.4.4.4.5.i.|.pXfXfXfXfXfX",
"fXfXfXfXrX^.M.eXpXaX*Xf.s.].wXP.4.4.4.4.4.4.4.4.6.6.$.{ B n n n b P +.1.9.6.4.4.4.4.5.c.qXpXfXfXpXfX",
"fXfXfXfX*Xs.oXpXpXtXS.u.'.0XP.4.4.4.4.4.4.4.6.4.%.E 7 % .         o 2 V R X.2.8.4.4.4.5.}.pXfXfXpXfX",
"fXfXfXrXA.M.eXpXpX=Xs.x.9X[.4.4.4.4.4.4.4.6.%.Q 8 o   * > > > > , =     . 2 J o.4.4.4.2.l.qXpXfXpXfX",
"fXfXfX*Xd.oXpXpXtXS.u.'.5Xr.4.4.4.4.4.4.8.#.h   . % 9 j c c c c c k t w - X   5 ! ,.6.4.4..XpXpXpXpX",
"fXfXaX_.m.qXpXpX-Xs.x.8X[.4.4.4.4.4.4.8.$.h     2 k c c c c c c c c c c l w - . * W <.4.2.b.tXpXpXpX",
"fXfXtXv.XXpXpXuXD.u.'.5Xr.2.4.4.4.4.6.$.k     1 l c c c c c c c x x x x c b l q o = W ,.4.q.<XpXpXpX",
"fXpXXXg.8XpXpX9Xv.u.XX@X4.4.4.4.4.4.1.m     1 l c c c c c c z y , ; ; > t g c c q o - ) 6.2.[.aXpXpX",
"fXpXA.R.tXpXaXoXp.z.,XP.4.4.4.4.4.8.{ ;   > l c c c c c c u , X         . @ 6 k c ,   z *.4.n.eXpXpX",
"fXfXS.].aXpXpX|.u.B.9Xr.4.4.4.4.4.,.N   O t c c c c c c u #   . * 4 4 4 : .   , l i X 3 _ 4.0.5XaXpX",
"fX-Xc.*XaXpXeXB.p.oX3Xw.4.4.4.4.6.%.1   7 c c c c c c u #   > i j v f u r 9 @   4 z 1 + B *.0.>XpXpX",
"fXXXM.rXpXpXqXz.p.:X[.2.4.4.4.4.6.~ + X t c c c c c g %   > k z e < $ . X : 1 X @ g 5 . d } 6.U.pXpX",
"fXA.v.tXpXpXqXz.p.;X[.2.4.4.4.4.8.A   - z c c c c x 6   ; k j : X           X     r r o 7 [ 4.L.pXpX",
"rXB.K.uXpXpXqXz.p.;X[.2.4.4.4.4.-.l   4 c c c c c z =   8 k ;                     : h @ - L ;.P.pXpX",
"pXW.=XaXpXpXqXz.p.;X[.2.4.4.4.8...% . i c c c c c t o @ d 9                       * g @ - C -.U.pXpX",
"aX_.-XaXpXpXqXz.p.;X[.2.4.4.4.8...% . s c c c c c 9   % g %                       % d @ - C *.k.iXfX",
"iXA.=XaXpXpXqXz.p.;X`.2.4.4.4.8...% . s c c c c c 9   % 6 .                       . 7 @ - C &.3.iXfX",
"eXp.=XaXpXpXqXz.p.;X X6.4.4.4.8...% . s c c c c c 9   % 3                           5 # - C &.3.iXfX",
"fXp.Q.uXpXpXyXQ.u.~.9Xr.4.4.4.8...% . s c c c c c 9   % 3                           % O 8 K ` m.aXfX",
"fXu.v.tXpXpXaXoXu.M.9Xt.4.4.4.8...* . s c c c c c 0   % 0 o                           o s ] ^ !.fXfX",
"fXv.m.tXpXpXaXXXu.M.tX[.4.4.4.4.;.b   w c c c c c j % . 9 >                           > x / D XXfXpX",
"fXXXM.tXpXpXaX*Xp.g.:X%X9.4.4.4.8.I   - l c c c c c 8   - 7 X                       @ y F ( | sXfXpX",
"fXfXR.eXpXpXpXrXm.y.XXyXF.2.4.4.6.+.4   w c c c c c h *   % @                     @ y c ) G :.dXpXpX",
"fXfX|.XXaXpXpXuXQ.u.~.iX$X6.4.4.4.4.P   - z c c c c c d &                       @ y c C L T 8XaXpXfX",
"fXfXtX2XpXpXpXaX;Xp.g.6XtXF.2.4.4.6.O.5 . 8 x c c c c c g 6 #             X % 3 d c c g 3 >.dXpXpXfX",
"fXfXpXaXpXpXpXpX9Xm.u.~.pX#X0.4.4.4.2.U + X 9 x c c c c c c g 8 , O + @ 5 w l x c c w X Z 9XpXpXfXfX",
"fXfXfXfXfXpXpXpXpX|.p.j.6XpX+X0.4.4.4.<.K + X 9 c c c c c c c c z g g j c c c c c e o a Z.aXpXpXfXfX",
"fXfXfXfXfXpXpXpXpX9Xv.u.~.iXpX+X0.4.4.6.,.J + X 8 j c c c c c c c c c c c c c k q o p C.sXpXpXfXfXfX",
"fXfXfXfXfXfXpXpXpXpX|.p.z.6XaXpX+X0.4.4.6.,.J +   & 9 j z c c c c c c z j s 4 =   p V.sXpXpXfXfXfXfX",
"fXfXfXfXfXfXpXpXpXpXqXc.u.^.uXpXpX X0.4.4.6.,.F #   X @ 1 0 0 0 0 0 0 , @ + . - Y C.sXpXpXpXfXfXfXfX",
"fXfXfXfXfXfXfXpXpXpXpX&Xg.p._.uXpXiX3XY.q.2.4.;.' x 8 .                   ; H h.eXsXpXpXpXpXfXfXfXfX",
"fXfXfXfXfXfXfXpXpXpXpXpX&Xf.p.'.uXpXaXiX<XY.r.9.4.1.@./ M 3 4 4 4 3 4 S  .a.eXsXpXpXpXpXpXfXfXfXfXfX",
"fXfXfXfXfXfXfXfXoX7XpXpXpXOXf.p.'.tXpXpXaXyXwX+X`.G.0.w.2.-.-.=.7.N.I.4XpXdXpXpXpXpXpXpXfXfXfXfXfXfX",
"fXfXfXfXfXfXfXfXfXA.,XpXpXiXOXf.p.B.*XrXpXaXaXpXaXtX5X5X5X5X5X5XtXsXaXaXpXpXpXpXpXpXfXfXfXfXfXfXfXfX",
"fXfXfXfXfXfXfXfXfXfX2XfXpXpXiX1XW.g.p.A.^.2XeXaXpXpXaXaXaXaXaXaXpXpXpXpXpXpXpXpXfXfXfXfXfXfXfXfXfXfX",
"fXfXfXfXfXfXfXfXfXfXfXfXfXpXpXaXuX:XW.g.p.d.B.'.,XrXtXaXaXpXpXpXpXpXpXpXpXfXfXfXfXfXfXfXfXfXfXfXfXfX",
"fXfXfXfXfXfXfXfXfXfXfXfXfXfXfXpXpXaXtX9XXXM.p.p.z.x.D.&X=XrXiXiXiXiXuXfXfXfXfXfXfXfXfXfXfXfXfXfXfXfX",
"fXfXfXfXfXfXfXfXfXfXfXfXfXfXfXfXfXfXfXfXaX8X,X1X-XD.B.A.x.B.S.S.D.B.p.u.fXfXfXfXfXfXfXfXfXfXfXfXfXfX",
"fXfXfXfXfXfXfXfXfXfXfXfXfXfXfXfXfXfXfXfXfXfXfXfXaXuXyXuX1X].|.'.g.fXp.fXfXfXfXfXfXfXfXfXfXfXfXfXfXfX"
};
