/* XPM */
static char *result[] = {
/* columns rows colors chars-per-pixel */
"50 50 256 2 ",
"   c black",
".  c #000001",
"X  c #010001",
"o  c #010002",
"O  c #010102",
"+  c #020102",
"@  c #020103",
"#  c #030103",
"$  c #030203",
"%  c #030104",
"&  c #040105",
"*  c #040205",
"=  c #040206",
"-  c #050206",
";  c #050207",
":  c #060207",
">  c #060208",
",  c #070308",
"<  c #070309",
"1  c #08030A",
"2  c #08030B",
"3  c #09030B",
"4  c #09040C",
"5  c #0A040C",
"6  c #0A040D",
"7  c #0A050D",
"8  c #0B040E",
"9  c #0B040F",
"0  c #0C040F",
"q  c #0C050F",
"w  c #0C0510",
"e  c #0D0510",
"r  c #0D0511",
"t  c #0E0511",
"y  c #0E0512",
"u  c #0E0612",
"i  c #0F0613",
"p  c #0F0614",
"a  c #100614",
"s  c #100615",
"d  c #110615",
"f  c #110715",
"g  c #110716",
"h  c #120716",
"j  c #120717",
"k  c #100813",
"l  c #120718",
"z  c #130718",
"x  c #130719",
"c  c #130818",
"v  c #130819",
"b  c #140819",
"n  c #14081A",
"m  c #15081A",
"M  c #15081B",
"N  c #15081C",
"B  c #16081C",
"V  c #16091C",
"C  c #16091D",
"Z  c #17091D",
"A  c #17091E",
"S  c #170A1E",
"D  c #18091E",
"F  c #18091F",
"G  c #180A1F",
"H  c #190A1F",
"J  c #180A20",
"K  c #190A20",
"L  c #190A21",
"P  c #1A0A21",
"I  c #1A0A22",
"U  c #1B0A22",
"Y  c #1B0B23",
"T  c #1A0C22",
"R  c #1C0B24",
"E  c #1D0B25",
"W  c #1C0D25",
"Q  c #1D0C26",
"!  c #1D0D26",
"~  c #1E0C26",
"^  c #1E0C27",
"/  c #1F0C28",
"(  c #200C29",
")  c #200D2A",
"_  c #210D2A",
"`  c #210D2B",
"'  c #200F2A",
"]  c #220D2C",
"[  c #230E2D",
"{  c #230E2E",
"}  c #240E2E",
"|  c #240E2F",
" . c #250E30",
".. c #260F31",
"X. c #260F32",
"o. c #270F32",
"O. c #270F33",
"+. c #280F33",
"@. c #251232",
"#. c #261333",
"$. c #271234",
"%. c #281033",
"&. c #281034",
"*. c #291034",
"=. c #291035",
"-. c #2A1036",
";. c #2A1137",
":. c #2B1137",
">. c #281336",
",. c #2B1138",
"<. c #2C1138",
"1. c #2C1139",
"2. c #2C113A",
"3. c #2D113A",
"4. c #2D123A",
"5. c #2D123B",
"6. c #2E123B",
"7. c #2F123C",
"8. c #2F123D",
"9. c #2F133D",
"0. c #2E163E",
"q. c #30133E",
"w. c #30133F",
"e. c #31133F",
"r. c #2F1840",
"t. c #311340",
"y. c #321340",
"u. c #321341",
"i. c #321440",
"p. c #321441",
"a. c #331441",
"s. c #321541",
"d. c #331442",
"f. c #331542",
"g. c #331443",
"h. c #331543",
"j. c #341443",
"k. c #341543",
"l. c #331644",
"z. c #341544",
"x. c #351544",
"c. c #351545",
"v. c #341644",
"b. c #341744",
"n. c #351645",
"m. c #351646",
"M. c #361646",
"N. c #361746",
"B. c #361747",
"V. c #301840",
"C. c #311942",
"Z. c #321843",
"A. c #321943",
"S. c #331A45",
"D. c #341844",
"F. c #341A45",
"G. c #371748",
"H. c #371848",
"J. c #371849",
"K. c #351B48",
"L. c #361B48",
"P. c #371C49",
"I. c #371C4A",
"U. c #381849",
"Y. c #38184A",
"T. c #38194A",
"R. c #39194B",
"E. c #391A4B",
"W. c #39194C",
"Q. c #391A4C",
"!. c #3A1A4C",
"~. c #3A1A4D",
"^. c #3A1B4D",
"/. c #3A1B4E",
"(. c #3B1B4E",
"). c #3B1B4F",
"_. c #381C4C",
"`. c #391C4C",
"'. c #381D4C",
"]. c #391D4C",
"[. c #391D4D",
"{. c #3C1C4F",
"}. c #3B1E50",
"|. c #3C1C50",
" X c #3D1C51",
".X c #3D1D51",
"XX c #3D1D52",
"oX c #3E1D52",
"OX c #3D1E52",
"+X c #3D1F52",
"@X c #3D1F53",
"#X c #3E1E53",
"$X c #3E1E54",
"%X c #3F1E54",
"&X c #3F1F55",
"*X c #3E2053",
"=X c #3F2055",
"-X c #3F2156",
";X c #401F56",
":X c #402056",
">X c #402057",
",X c #412057",
"<X c #412058",
"1X c #412158",
"2X c #422159",
"3X c #412258",
"4X c #412259",
"5X c #422259",
"6X c #42215A",
"7X c #42225A",
"8X c #43225A",
"9X c #43225B",
"0X c #43235B",
"qX c #43235C",
"wX c #44235C",
"eX c #44235D",
"rX c #44245D",
"tX c #45245D",
"yX c #45245E",
"uX c #45245F",
"iX c #46245F",
"pX c #46255F",
"aX c #462560",
"sX c None",
"dX c black",
"fX c black",
"gX c black",
"hX c black",
"jX c black",
"kX c black",
"lX c black",
"zX c black",
"xX c black",
"cX c black",
"vX c black",
"bX c black",
"nX c black",
"mX c black",
"MX c black",
"NX c black",
"BX c black",
"VX c black",
"CX c black",
"ZX c black",
"AX c black",
"SX c black",
"DX c black",
"FX c black",
"GX c black",
"HX c black",
"JX c black",
"KX c black",
"LX c black",
"PX c black",
"IX c black",
"UX c black",
/* pixels */
"sXsXsXsXsXsXsXsXsXsXsXsXsXsXsXsXsXsXyXyXyXyXyXyXyXyXsXsXsXsXsXsXsXsXsXsXsXsXsXsXsXsXsXsXsXsXsXsXsXsX",
"sXsXsXsXsXsXsXsXsXsXsXsXsXsXsXsXsXyXyXyXyXyXyXyXyXyXyXyXyXyXsXsXsXsXsXsXsXsXsXsXsXsXsXsXsXsXsXsXsXsX",
"sXsXsXsXsXsXsXsXsXsXsXsXsXsXsXsXsXsXyXuXyX8X>X~.W.Q.Q.Q.Q.`._.I.A.sXsXsXyXsXsXsXsXsXsXsXsXsXsXsXsXsX",
"sXsXsXsXsXsXsXsXsXsXsXsXyXyXyXyXyXuXeX&X).B.k.d.u.u.a.k.z.v.v.b.D.Z.C.sXsXwXsXsXsXsXsXsXsXsXsXsXsXsX",
"sXsXsXsXsXsXsXsXsXsXyXyXyXyXyXyXeX&XT.k.u.d.g.k.T.!.^.<X6X6X6X6X<X/.].[.}.}.F.sXsXsXsXsXsXsXsXsXsXsX",
"sXsXsXsXsXsXsXsXyXsXsXyXyXyXwX&XY.k.a.g.G.!.;X,XeXyXyXuXuXuXuXuXuXyXyXyXyX0X*X'.sXsXsXsXsXsXsXsXsXsX",
"sXsXsXsXsXsXsXsXsXsXyXyXyXwX!.g.a.j.J.#XwXyXyX9X8X.X^.^.^.^.^.^.;X8XqXuXyXyXyXrXtXsXsXsXsXsXsXsXsXsX",
"sXsXsXsXsXsXsXsXsXyXyXyXwX!.d.d.J.#XwXuXwX%X{.M.c.g.a.a.a.a.a.a.z.c.J..X,XtXuXyXyXsXsXsXsXsXsXsXsXsX",
"sXsXsXsXsXsXsXsXyXyXyXqXQ.d.d.T.9XuXwX%XU.j.a.d.d.d.d.d.d.d.d.d.d.d.d.a.c.~.,XtXyXyXsXsXyXsXsXsXsXsX",
"sXsXsXsXsXsXyXyXyXyXqXQ.d.d.R.9XyX&XU.g.d.d.d.d.d.g.g.g.g.g.g.g.g.g.g.d.d.d.x.!.6XyXyXsXyXsXsXsXsXsX",
"sXsXsXsXsXyXyXyXyX0XW.d.d.R.9XyX%Xx.a.d.d.d.d.g.a.q.&.` ` ` ` ` } 7.q.a.j.d.d.a.J.6XyXyXsXyXsXsXsXsX",
"sXsXsXsXyXyXyXyXwXW.d.d.R.0XyX%Xx.d.d.d.d.g.a.3.` A b f g h h g h N C _ O.q.p.j.d.J.6XuXyXyXsXsXsXsX",
"sXsXsXyXyXyXyXyX%Xg.d.R.0XyX$Xx.d.d.d.d.d.3.) V h h C U J j j j w 3 < = 3 e z X.i.d.H.2XuXyXsXsXsXsX",
"sXsXyXsXsXyXyXwXU.a.Y.0XyX#Xz.d.d.d.d.d.%.N h b R [ / ~ Y l j j h g i 8 , X   & R p.d.H.2XyXsXsXsXsX",
"sXsXsXsXyXyXuX&Xg.k.%XuX2Xn.d.d.d.d.d.%.M j R ..| I x g h j j j j j j j g t , . # R p.d.W.rXyXsXsXsX",
"sXsXsXyXyXyXtX{.a.Y.wXyX).d.d.d.d.d.O.m j / O.L z h j j j j j j j j j j j j h 4 . @ Y i.z.:XuXsXyXsX",
"sXsXyXyXyXyX2Xm.a.XXuX2Xm.d.d.d.d.O.m j / O.C h j j j j j j d u u u u i j j j h 4 . @ Y t.Q.eXsXyXsX",
"sXsXyXyXyXuX|.a.m.1XyX).d.d.d.g.*.m j / O.C h j j j j j f 0 ; X X X X @ 1 8 d j h 4 X & O.c.;XuXyXsX",
"sXsXsXyXyXuX{.a.U.rXwXG.a.d.d.e.R g L 1.D h j j j j j i - X X : < < < # . . * u j h > . x y.|.uXyXyX",
"sXsXyXyXyXeX!.d.#XuX&Xk.d.d.g.&.x l X.} j j j j j j i *   & r g j j j i r > o % u j r o * X.J.2XyXyX",
"sXsXyXyXuX2Xz.g.:XiXoXd.d.d.e.Y g I ,.F h j j j j u &   * i j j j j j l l h 8 o , h a %   ^ c.2XyXyX",
"sXyXyXyXuX2Xz.k.>XeXQ.d.d.j.-.x z ..} j j j j j h >   * i j j j g k 7 4 6 a j 1 X 6 j 3   q e.$XyXyX",
"sXyXyXyXyX%Xg.T.eX9Xn.d.d.a.[ h I 9.Y h j j j j r o O y j j h r > $ .     % 5 q + % a 5   5 8.!.yXyX",
"sXyXyXyXtXR.u.!.yX9Xn.d.d.e.G g { w.K h j j j g >   < h j h 8 o               # X   q 6   5 9.~.yXyX",
"sXyXyXyXtXR.u.!.yX9Xn.d.d.e.F g } %.l j j j j a % + y j j 9 o                       0 6   5 9.~.yXsX",
"yXyXyXyXtXR.u.!.yX9Xn.d.d.e.F g } O.j j j j j 6 . % f j d =                         0 6   5 9.~.yXsX",
"yXyXyXyXtXR.u.!.yX9Xn.d.d.e.F g } O.j j j j j 4   % f j 9 .                         0 6   5 8.~.yXsX",
"yXyXyXyXtXR.u.!.yX8Xn.d.d.e.F g } O.j j j j j 5   % f h ;                           q 6   9 q.~.yXsX",
"yXyXyXyXtXR.u.!.yXeXQ.d.d.e.F g | O.j j j j j 4   % f h -                           6 :   h i.#XyXsX",
"yXyXyXyXtXR.u.!.yXuXoXd.d.e.F g { ,.M j j j j 5   % f h ;                         . 2 + . J k.7XsXsX",
"yXyXyXyXyX(.a.!.yXuX&Xk.d.e.F g K 7.Y h j j j i @ X 0 j 9 .                       & < . = X.J.6XsXsX",
"yXyXsXyXyX1Xk.R.eXyXwXG.d.a.] j m 5.Q h j j j j 2   2 j d -                     . > % . e -. XuXsXsX",
"sXyXsXyXyX2Xx.z.,XuXtX).d.j.*.j v O.;.b j j j j i # + 9 j 0 o                     o   = U f.&XsXsXsX",
"sXyXsXyXyXrX~.d.XXyXuX2Xm.g.<.M g ^ y.Q h j j j j 2 . O 9 j 8 O                     - g -.!.wXsXsXsX",
"sXsXsXsXyXuXXXd.J.eXyXyX).d.a.( h Z 5.:.n h j j j f 1 . O 8 s t , +       . = .   - i E d.&XsXsXsXsX",
"sXsXsXsXyXyX9Xm.c.,XuXyX2Xn.d.<.b j ` t./ j j j j j g 1   . * 8 a q 1 > .   . X ; p B ,.oXsXsXsXsXsX",
"sXsXsXsXyXyXeXR.a.^.rXyXtX#Xx.8.K g C 2.t./ j j j j j f 4 % . . @ # # @   . ; q s V =.^.eXsXyXsXsXsX",
"sXsXsXsXyXyXuX;Xz.z.,XyXyXyX$Xc. .z h J 3.t./ j h j j j j p r , = = = = ; w d j V -.N.0.sXuXyXsXsXsX",
"sXsXsXsXyXyXyXrXR.a.~.tXyXyXyX%Xh.] z h G 2.t.X.P z h j j j j h h h g g g h M ( ,.s.>.! yXyXsXsXsXsX",
"sXsXsXsXsXyXyXyX>Xz.k.XXyXyXyXyX%Xk.] z h F 1.j.w...I n b h h h h g j n M ( 2.y.:.L W -XyXyXsXsXsXsX",
"sXsXsXsXsXyXyXyXeXQ.u.B.7XyXyXyXyX&XH.[ z g F +.e.j.w.4.=.Q E E E E ] 4.6.i.,./ M @.3XuXyXsXsXsXsXsX",
"sXsXsXsXsXsXyXsXyX<XB.a.Y.7XyXyXyXyXwX#X$.b g z U O.3.8.j.d.d.d.d.d.g.8.,.^ n j #.5XuXsXsXsXsXsXsXsX",
"sXsXsXsXsXsXsXsXsXyX<XB.a.U.7XyXyXyXyXuX9XS.' n d z b H _ _ _ _ _ _ _ D j c ! V.3XiXsXsXsXsXsXsXsXsX",
"sXsXsXsXsXsXsXsXsXsXyX<XB.a.U.6XyXuXyXyXyXiX4XS.#.T b b v v v v v v v S @.r.-XpXsXsXsXsXsXsXsXsXsXsX",
"sXsXsXsXsXsXsXsXsXsXsXyX<XT.k.M.|.>XwXyXyXyXuXuXyX@X[.[.[.[.[.[.[.[.[.}.rXiXsXsXsXsXsXsXsXsXsXsXsXsX",
"sXsXsXsXsXsXsXsXsXsXsXsXyXeX#XY.z.g.U.%X7XtXuXyXyXuXiXiXiXpXpXpXpXpXpXaXsXyXyXyXsXsXsXsXsXsXsXsXsXsX",
"sXsXsXsXsXsXsXsXsXsXsXsXsXsXsX0XXX).B.n.M.~.XX8XqXtXuXuXyXwXwXqXqXqXwXyXyXyXyXsXsXsXsXsXsXsXsXsXsXsX",
"sXsXsXsXsXsXsXsXsXsXsXsXsXsXsXsXsXsX2X2X#XJ.l.E.Q.OX=X=X+XL.K.P.I.I.].sXsXsXsXsXsXsXsXsXsXsXsXsXsXsX",
"sXsXsXsXsXsXsXsXsXsXsXsXsXsXsXsXsXsXsXsXsX0X-X5XtXsXsXsXsXsXsXsXsXsXsXsXsXsXsXsXsXsXsXsXsXsXsXsXsXsX",
"sXsXsXsXsXsXsXsXsXsXsXsXsXsXsXsXsXsXsXsXsXsXsXsXyXuXsXsXsXsXsXsXsXsXsXsXsXsXsXsXsXsXsXsXsXsXsXsXsXsX"
};
