/* XPM */
static char *result[] = {
/* columns rows colors chars-per-pixel */
"50 50 256 2 ",
"   c black",
".  c #010001",
"X  c #010102",
"o  c #020102",
"O  c #020103",
"+  c #030103",
"@  c #030203",
"#  c #030104",
"$  c #030105",
"%  c #040105",
"&  c #040205",
"*  c #040206",
"=  c #050206",
"-  c #050207",
";  c #060207",
":  c #060208",
">  c #060308",
",  c #070308",
"<  c #070309",
"1  c #070409",
"2  c #08030A",
"3  c #08030B",
"4  c #09030B",
"5  c #09040C",
"6  c #0A040C",
"7  c #0A040D",
"8  c #0B040D",
"9  c #0A040E",
"0  c #0B040E",
"q  c #0B040F",
"w  c #0C050F",
"e  c #0C0510",
"r  c #0D0510",
"t  c #0D0511",
"y  c #0E0511",
"u  c #0E0512",
"i  c #0E0612",
"p  c #0F0613",
"a  c #0F0713",
"s  c #0F0614",
"d  c #100614",
"f  c #100615",
"g  c #110615",
"h  c #110715",
"j  c #110716",
"k  c #120716",
"l  c #120717",
"z  c #120817",
"x  c #130718",
"c  c #130719",
"v  c #130819",
"b  c #140819",
"n  c #14081A",
"m  c #15081A",
"M  c #16081C",
"N  c #16091C",
"B  c #16091D",
"V  c #17091D",
"C  c #17091E",
"Z  c #18091F",
"A  c #180A1F",
"S  c #190920",
"D  c #190A20",
"F  c #190A21",
"G  c #1A0A21",
"H  c #1A0A22",
"J  c #1B0A22",
"K  c #1A0B22",
"L  c #1B0B23",
"P  c #1C0B23",
"I  c #1C0B24",
"U  c #1D0B25",
"Y  c #1D0B26",
"T  c #1D0C26",
"R  c #1E0C26",
"E  c #1E0C27",
"W  c #1F0C28",
"Q  c #1F0C29",
"!  c #200D2A",
"~  c #210D2A",
"^  c #210D2B",
"/  c #220D2B",
"(  c #210D2C",
")  c #220D2C",
"_  c #220D2D",
"`  c #220E2D",
"'  c #230E2D",
"]  c #230E2E",
"[  c #240E2E",
"{  c #240E2F",
"}  c #250E2F",
"|  c #250E30",
" . c #250F30",
".. c #250F31",
"X. c #260F31",
"o. c #260F32",
"O. c #270F32",
"+. c #270F33",
"@. c #280F33",
"#. c #271033",
"$. c #281033",
"%. c #281034",
"&. c #291034",
"*. c #281134",
"=. c #291035",
"-. c #281135",
";. c #291135",
":. c #281235",
">. c #291136",
",. c #2A1036",
"<. c #2A1037",
"1. c #2A1137",
"2. c #2B1137",
"3. c #281236",
"4. c #291236",
"5. c #291237",
"6. c #2B1138",
"7. c #2C1138",
"8. c #2C1139",
"9. c #2D123A",
"0. c #2C133A",
"q. c #2D123B",
"w. c #2E123B",
"e. c #2E123C",
"r. c #2E133C",
"t. c #2F123D",
"y. c #2F133D",
"u. c #30133E",
"i. c #30133F",
"p. c #31133F",
"a. c #30143F",
"s. c #311340",
"d. c #321340",
"f. c #321341",
"g. c #301540",
"h. c #321440",
"j. c #321441",
"k. c #331441",
"l. c #331442",
"z. c #331443",
"x. c #331543",
"c. c #321642",
"v. c #321742",
"b. c #331643",
"n. c #331743",
"m. c #341443",
"M. c #341543",
"N. c #341544",
"B. c #351545",
"V. c #351645",
"C. c #351646",
"Z. c #351746",
"A. c #361646",
"S. c #361747",
"D. c #331843",
"F. c #321943",
"G. c #331944",
"H. c #341845",
"J. c #341945",
"K. c #351846",
"L. c #351847",
"P. c #341A46",
"I. c #371748",
"U. c #371848",
"Y. c #371849",
"T. c #371949",
"R. c #361B48",
"E. c #361B49",
"W. c #361C49",
"Q. c #371C4A",
"!. c #381849",
"~. c #38184A",
"^. c #38194A",
"/. c #38194B",
"(. c #39194B",
"). c #391A4B",
"_. c #381B4B",
"`. c #381C4B",
"'. c #39194C",
"]. c #3A194C",
"[. c #391A4C",
"{. c #3A1A4C",
"}. c #3A1A4D",
"|. c #3A1B4D",
" X c #3B1B4E",
".X c #3B1B4F",
"XX c #3C1B4F",
"oX c #391C4C",
"OX c #391D4D",
"+X c #3A1D4E",
"@X c #3B1C4F",
"#X c #3A1E4E",
"$X c #3A1E4F",
"%X c #3C1C4F",
"&X c #3C1C50",
"*X c #3C1C51",
"=X c #3D1C51",
"-X c #3D1D51",
";X c #3C1F51",
":X c #3D1D52",
">X c #3D1E52",
",X c #3E1E53",
"<X c #3E1F53",
"1X c #3E1E54",
"2X c #3F1E54",
"3X c #3E1F54",
"4X c #3F1F54",
"5X c #3F1F55",
"6X c #3E2053",
"7X c #3E2054",
"8X c #3E2055",
"9X c #401F55",
"0X c #401F56",
"qX c #402056",
"wX c #402057",
"eX c #412057",
"rX c #402157",
"tX c #412058",
"yX c #412158",
"uX c #422159",
"iX c #412259",
"pX c #42215A",
"aX c #42225A",
"sX c #43225A",
"dX c #43225B",
"fX c #43235B",
"gX c #43235C",
"hX c #44235C",
"jX c #44235D",
"kX c #44245D",
"lX c #45245D",
"zX c #45245E",
"xX c #45245F",
"cX c #46245F",
"vX c None",
"bX c black",
"nX c black",
"mX c black",
"MX c black",
"NX c black",
"BX c black",
"VX c black",
"CX c black",
"ZX c black",
"AX c black",
"SX c black",
"DX c black",
"FX c black",
"GX c black",
"HX c black",
"JX c black",
"KX c black",
"LX c black",
"PX c black",
"IX c black",
"UX c black",
/* pixels */
"vXvXvXvXvXvXvXvXvXvXvXvXvXvXvXvXvXvXvXvXvXvXvXvXvXxXlXfXvXvXvXvXvXvXvXvXvXvXvXvXvXvXvXvXvXvXvXvXvXvX",
"vXvXvXvXvXvXvXvXvXvXvXvXvXvXvXvXvXvXvXvXvXvXvXvXvXvXvXQ.R.G.P.vXvXvXvXvXvXvXvXvXvXvXvXvXvXvXvXvXvXvX",
"vXvXvXvXvXvXvXvXvXvXvXvXvXvXvXzXzXzXxXkXiX>X_.J.P.W.Q.Q.`.OXrXlXzXvXvXvXvXvXvXvXvXvXvXvXvXvXvXvXvXvX",
"vXvXvXvXvXvXvXvXvXvXvXzXzXzXzXzXzXfX0X).K.S.@X-XtXjXhXjXzXcXxXzXzXzXzXvXvXvXvXvXvXvXvXvXvXvXvXvXvXvX",
"vXvXvXvXvXvXvXvXvXvXvXzXvXvXzXuX&XA.V./.9XdXzXxXzXzXzXzXzXzXzXzXzXzXzXzXzXvXvXvXvXvXvXvXvXvXvXvXvXvX",
"vXvXvXvXvXvXvXvXvXvXvXvXzXuX%XC.N.(.0XjXzXzXzXzXzXzXxXxXxXxXxXxXzXzXzXzXzXzXvXvXzXvXvXvXvXvXvXvXvXvX",
"vXvXvXvXvXvXvXvXvXvXzXzXeXS.l.^.qXjXzXzXzXzXzXzXxXhXuXuXuXuXuXuXfXxXxXzXzXzXzXvXzXzXvXvXvXvXvXvXvXvX",
"vXvXvXvXvXvXvXzXzXzXzXwXA.k./.dXxXzXzXzXxXjXdX,X%X/.N.N.N.N.N.N.!.%X:XsXjXxXzXzXvXzXvXvXvXvXvXvXvXvX",
"vXvXvXvXvXvXzXzXzXzXwXA.k.(.dXzXzXzXxXlXwX{.A.N.j.d.d.d.d.d.d.d.d.s.k.A.(.9XjXzXvXzXzXvXvXvXvXvXvXvX",
"vXvXvXvXvXzXzXzXxXqXC.k.(.dXzXzXzXlXwX].B.l.u.1.~ G G G G G G G G F U &.q.N.(.0XjXzXzXzXvXvXvXvXvXvX",
"vXvXvXvXzXzXvXvX9XC.k.(.fXzXzXzXlX-XN.d.6.Q G x k j M C V V V V V V c l V ( w.M.XXjXzXzXvXvXvXvXvXvX",
"vXvXvXzXzXvXvXgXU.k.'.fXzXzXzXlX-XN.2.W N l l m U [ q.i.i.i.i.i.i.i.+.L n l N / q..XjXzXzXvXvXvXvXvX",
"vXvXvXzXvXvXxX,Xl.S.sXzXzXzXlX-XM.,.F D L I [ w.p.m.z.m.m.k.j.j.j.j.k.p.w._ V h r W |.jXzXvXvXvXvXvX",
"vXvXvXvXvXzXgXU.l.-XzXzXzXlX=XM.2.L I T X.t.l.z.z.z.p.2.=.Y H J J H R ,.6.p.e.) w $ I |.jXvXvXvXvXvX",
"vXvXvXvXzXzXyXN.S.sXzXzXzX:XM.7.W E D X.k.z.l.z.p.@.L v x l k k k k l c b I &.u.[ 2 O W &XzXvXvXvXvX",
"vXvXvXvXzXlX Xl.-XzXzXzXdXI.w.' ! L X.k.l.l.j.O.J c k l l j p 6 5 5 5 t g g b P O.! : 0 r.yXxXzXvXvX",
"vXvXvXzXxXuXB.N.uXxXzXzX:Xp.{ ^ ^ %.k.l.l.j.[ v k l l g q * O         X # - w h b { L . k |.zXzXvXvX",
"vXvXvXzXzX2Xl.).jXzXzXdXI.<.^ ` 8.l.l.l.j.] c k l l e *     # * & & * %     . 4 j n L * $ *.pXzXvXvX",
"vXvXzXzXlX^.f..XxXzXxX2Xp.{ ~ %.l.l.l.l.| c l l l w o   # 6 d k j j j g w 4 O . 4 j l 2   U =XcXvXvX",
"vXvXzXzXuXA.M.4XzXzXjX}.<.^ ` t.l.l.l.t.S k l l w o   < d l l l l l l l l l a ; . e x q   9 K.hXvXvX",
"vXvXzXxX1Xk.C.dXzXzXgXV. .! %.k.l.l.l.} l l l w o   < h l l l l l l l l l l l d + - j f $ - ;.pXvXvX",
"vXzXzXxX1Xl.Y.hXzXzXuXa._ / 6.l.l.l.t.Z k l f &   < h l l l l l l z a u i j l j - . w l 8   K wXxXzX",
"vXzXzXxX2Xl.:XxXzXxX&X8.~ ] p.l.l.m.X.l l l 0   # d l l l l l h e 1 @ . . : r j r . 4 l t   D }.zXzX",
"zXzXzXlX Xl.,XxXzXxX&X8.^ [ s.l.l.z.} k l j &   5 l l l l l d ; .           . : s = + f t   S ].zXzX",
"zXvXzXgXA.S.dXzXzXxX&X8.^ [ s.l.l.i.F k l i O   7 l l l l d -                   ; % o d t   S ].zXzX",
"zXvXzXhXA.U.jXzXzXxX&X8.^ [ s.l.l.y.N k l 5   . w l l l l 6                         o d t   S {.zXzX",
"zXvXzXhXA.U.jXzXzXxX&X8.^ [ s.l.l.y.B k l 5   % h l l l d #                         o d t   S {.zXzX",
"vXvXzXhXA.U.jXzXzXxX%X7.^ [ s.l.l.y.B k l 5   & j l l l 6                           o d t   S {.zXzX",
"vXvXzXhXA.U.jXzXzXzX,X9.~ [ s.l.l.y.N k l 5   % j l l l 4                           * h t   F =XzXzX",
"vXvXzXhXA.U.jXzXzXzXfXa.( ' u.l.l.i.F k l 8 . X r l l l 4                           6 l q   K pXzXvX",
"vXvXzXgXA.B.eXzXzXzXhXZ. .~ <.l.l.z.} k l f #   7 l l l r X                       o y k = & #.sXxXvX",
"vXvXzXjX[.k.,XxXzXzXzX*XX.~ o.h.l.m.X.l l h $   < k l l j :                       < l p O 4 T.zXzXvX",
"vXvXvXxX1Xl..XlXzXzXxX0Xw.^ _ u.l.l.t.Z k l 6   X y l l l t X                   o u l 3   L ,XxXvXvX",
"vXvXvXxX1Xk.A.dXzXzXzXlXL.` ^ <.l.l.l.{ l l d #   , k l l l q X               o w k 6 . t g.jXzXvXvX",
"vXvXvXzXuXC.V.aXzXzXzXxXqX>.~ [ i.l.z.t.A k l 7 . . 5 k l l l e : .       X > t k 6 . w 8.2XzXvXvXvX",
"vXvXvXzXlXI.l.*XxXzXzXzXlXL._ ^ ,.k.l.l.} x l k 6 . . 5 j l l l j r < < < t j p 3 . : ] .XhXzXvXvXvX",
"vXvXvXzXzX&Xz.'.jXzXzXzXzXeX0.! ) 9.z.l.h.' c l k 7 . . = w p l l l l l l p 3 O   > ^ ^.jXzXvXvXvXvX",
"vXvXvXvXzXfX!.M.qXzXzXzXzXxX3X-.! ..i.l.l.j.' c k k 7 +     o > , , , , > o   + q ( V.qXxXvXvXvXvXvX",
"vXvXvXvXzXxX}.k.(.kXzXzXzXzXxX<X-.! ..i.l.l.j.o.H x j p 6 : X . . . . . X > q D O.V.qXzXvXvXvXvXvXvX",
"vXvXvXvXzXvXvXY.M.-XlXzXzXzXzXxX3X-.! ..i.l.l.z.i.O.J c x h p p p p p d f J $.i.A.qXzXvXvXvXvXvXvXvX",
"vXvXvXvXvXzXvXuX!.M.=XlXzXzXzXzXxX3X:.! ..u.l.l.l.z.i.1.&.U H H H H Y =.2.i.M.!.qXxXvXvXvXvXvXvXvXvX",
"vXvXvXvXvXvXvXvXaXI.z.=XlXzXzXzXzXxX7X3.! } 6.p.l.l.l.m.z.j.h.h.d.d.h.l.N.~.4XsXjXvXvXzXvXvXvXvXvXvX",
"vXvXvXvXvXvXvXvXxXuXN.M.*XlXzXzXzXzXxX8X5.( ^ { 6.p.l.z.l.k.k.k.z.N.S..X,XaX5X&XaXzXzXvXvXvXvXvXvXvX",
"vXvXvXvXvXvXvXvXvXxXwXk.x.*XjXzXzXzXzXxXiXE.4.( / } 6.q.p.~.(.(.-XyX,X2X%X~..XpXzXvXvXvXvXvXvXvXvXvX",
"vXvXvXvXvXvXvXvXvXvXvXvXv.n.^.5XhXzXzXzXxXxXiXoXc.a.w.w.p.Y.~.~.~.^.B.V. XtXlXzXvXvXvXvXvXvXvXvXvXvX",
"vXvXvXvXvXvXvXvXvXvXvXvXvXF.v.b.^.5XzXzXzXzXxXxXlXuX,X*XS.V.V.V.V.V. XyXlXcXvXvXvXvXvXvXvXvXvXvXvXvX",
"vXvXvXvXvXvXvXvXvXvXvXvXvXvXvXF.D.H.7XjXzXzXzXzXzXzXxXzXfXdXdXdXdXdXkXxXvXvXvXzXvXvXvXvXvXvXvXvXvXvX",
"vXvXvXvXvXvXvXvXvXvXvXvXvXvXvXvX$XW.+X6XlXzXzXzXlXlXlXlXlXlXlXlXzXzXzXvXvXvXvXvXvXvXvXvXvXvXvXvXvXvX",
"vXvXvXvXvXvXvXvXvXvXvXvXvXvXvXvXvXvXvXlXzXzXvXvX;XOXOXOXOXOXOX#XvXvXvXvXvXvXvXvXvXvXvXvXvXvXvXvXvXvX",
"vXvXvXvXvXvXvXvXvXvXvXvXvXvXvXvXvXvXvXvXvXzXzXvXvXvXvXvXvXvXvXvXvXvXvXvXvXvXvXvXvXvXvXvXvXvXvXvXvXvX"
};
