/* XPM */
static char *result[] = {
/* columns rows colors chars-per-pixel */
"50 50 256 2 ",
"   c black",
".  c #000001",
"X  c #010001",
"o  c #010002",
"O  c #010102",
"+  c #020102",
"@  c #020103",
"#  c #030103",
"$  c #020202",
"%  c #030104",
"&  c #040105",
"*  c #040205",
"=  c #040206",
"-  c #050206",
";  c #050306",
":  c #050207",
">  c #050307",
",  c #060207",
"<  c #060208",
"1  c #060308",
"2  c #070308",
"3  c #070309",
"4  c #07030A",
"5  c #08030A",
"6  c #08030B",
"7  c #09030B",
"8  c #08040B",
"9  c #09040C",
"0  c #0A040C",
"q  c #0A040D",
"w  c #0B040E",
"e  c #0A050E",
"r  c #0B040F",
"t  c #0B060F",
"y  c #0C040F",
"u  c #0C050F",
"i  c #0C0510",
"p  c #0D0510",
"a  c #0D0511",
"s  c #0E0511",
"d  c #0D0711",
"f  c #0E0611",
"g  c #0E0512",
"h  c #0E0612",
"j  c #0F0613",
"k  c #0F0614",
"l  c #100614",
"z  c #100615",
"x  c #110615",
"c  c #110716",
"v  c #120716",
"b  c #120717",
"n  c #110816",
"m  c #120718",
"M  c #130718",
"N  c #130719",
"B  c #120A19",
"V  c #140819",
"C  c #14081A",
"Z  c #15081A",
"A  c #15081B",
"S  c #16091C",
"D  c #16091D",
"F  c #18091E",
"G  c #18091F",
"H  c #190A20",
"J  c #1A0A22",
"K  c #1B0A22",
"L  c #1B0B23",
"P  c #1C0B23",
"I  c #1B0C23",
"U  c #1C0B24",
"Y  c #1C0B25",
"T  c #1D0B25",
"R  c #1F0C27",
"E  c #1F0C28",
"W  c #1F0D29",
"Q  c #1F0E29",
"!  c #1F102A",
"~  c #200C29",
"^  c #200C2A",
"/  c #200D2A",
"(  c #210D2A",
")  c #210D2B",
"_  c #220D2B",
"`  c #200E2B",
"'  c #210D2C",
"]  c #220D2C",
"[  c #220D2D",
"{  c #230D2D",
"}  c #220E2C",
"|  c #220E2D",
" . c #230E2D",
".. c #230E2E",
"X. c #240E2E",
"o. c #240E2F",
"O. c #240F2F",
"+. c #23112F",
"@. c #250E30",
"#. c #240F30",
"$. c #250F30",
"%. c #260F31",
"&. c #260F32",
"*. c #270F32",
"=. c #270F33",
"-. c #280F33",
";. c #241130",
":. c #251031",
">. c #261032",
",. c #271133",
"<. c #251332",
"1. c #271134",
"2. c #271334",
"3. c #281033",
"4. c #281034",
"5. c #281134",
"6. c #291035",
"7. c #281235",
"8. c #2A1036",
"9. c #2A1136",
"0. c #2A1137",
"q. c #2B1137",
"w. c #291237",
"e. c #2A1337",
"r. c #2B1138",
"t. c #2B1339",
"y. c #2C1138",
"u. c #2C1139",
"i. c #2C113A",
"p. c #2D123A",
"a. c #2D123B",
"s. c #2E123B",
"d. c #2B1539",
"f. c #2B143A",
"g. c #2B153A",
"h. c #2E123C",
"j. c #2F123C",
"k. c #2F123D",
"l. c #2F133D",
"z. c #2D153C",
"x. c #2E153D",
"c. c #2F163E",
"v. c #30133E",
"b. c #31133F",
"n. c #311340",
"m. c #321340",
"M. c #321341",
"N. c #321440",
"B. c #321441",
"V. c #331441",
"C. c #301640",
"Z. c #301740",
"A. c #311741",
"S. c #331442",
"D. c #331443",
"F. c #311742",
"G. c #331643",
"H. c #341443",
"J. c #341543",
"K. c #341544",
"L. c #351544",
"P. c #351545",
"I. c #351645",
"U. c #351646",
"Y. c #361646",
"T. c #361747",
"R. c #371747",
"E. c #321843",
"W. c #331945",
"Q. c #331B46",
"!. c #341945",
"~. c #341946",
"^. c #351A47",
"/. c #341B47",
"(. c #371748",
"). c #371848",
"_. c #371849",
"`. c #371949",
"'. c #351B48",
"]. c #371B4A",
"[. c #351C48",
"{. c #361C49",
"}. c #371D4B",
"|. c #381849",
" X c #38184A",
".X c #38194A",
"XX c #39194B",
"oX c #381C4B",
"OX c #39194C",
"+X c #391A4C",
"@X c #3A1A4C",
"#X c #3A1A4D",
"$X c #3A1B4D",
"%X c #3A1B4E",
"&X c #3B1B4E",
"*X c #3B1B4F",
"=X c #391C4D",
"-X c #3A1D4E",
";X c #3B1C4F",
":X c #3A1D4F",
">X c #3C1C4F",
",X c #3B1E50",
"<X c #3B1F50",
"1X c #3C1C50",
"2X c #3C1C51",
"3X c #3D1D51",
"4X c #3D1D52",
"5X c #3E1D52",
"6X c #3C1F52",
"7X c #3D1F52",
"8X c #3D1F53",
"9X c #3E1E53",
"0X c #3E1E54",
"qX c #3F1E54",
"wX c #3F1F54",
"eX c #3F1F55",
"rX c #3E2054",
"tX c #3E2055",
"yX c #3F2055",
"uX c #3F2056",
"iX c #3F2156",
"pX c #401F56",
"aX c #402056",
"sX c #402156",
"dX c #402057",
"fX c #412057",
"gX c #402157",
"hX c #412058",
"jX c #412158",
"kX c #412159",
"lX c #422159",
"zX c #412259",
"xX c #422259",
"cX c #42215A",
"vX c #42225A",
"bX c #43225A",
"nX c #43225B",
"mX c #43235B",
"MX c #43235C",
"NX c #44235C",
"BX c #44235D",
"VX c #45235D",
"CX c #44245D",
"ZX c #45245D",
"AX c #45245E",
"SX c #45245F",
"DX c #46245F",
"FX c #46255F",
"GX c #462560",
"HX c None",
"JX c black",
"KX c black",
"LX c black",
"PX c black",
"IX c black",
"UX c black",
/* pixels */
"HXHXHXHXHXHXHXHXHXHXHXHXHXHXHXHXHXHXHXHXHXHXHXHXHXHXHXHXHXAXNXHXHXHXHXHXHXHXHXHXHXHXHXHXHXHXHXHXHXHX",
"HXHXHXHXHXHXHXHXHXHXHXHXHXHXHXHXHXHXHXSXZXfX9X|.).P.D.D.HXHXHXL.HXHXHXHXHXHXHXHXHXHXHXHXHXHXHXHXHXHX",
"HXHXHXHXHXHXHXHXHXHXHXHXHXHXHXHXHXAXkXqXOX).(.%XeXeXeXeXeXcXCXpX@X).@XHXHXHXHXHXHXHXHXHXHXHXHXHXHXHX",
"HXHXHXHXHXHXHXHXHXHXHXHXAXAXSXNXqX&XR.(.1XcXNXZXSXSXSXSXSXAXAXSXVXNXBXAXHXHXHXHXHXHXHXHXHXHXHXHXHXHX",
"HXHXHXHXHXHXHXHXHXHXAXAXAXNXqX|.K.Y.1XbXAXAXAXAXAXAXAXAXAXAXAXAXAXAXAXAXAXAXHXHXHXHXHXHXHXHXHXHXHXHX",
"HXHXHXHXHXHXHXHXHXHXHXSXeX_.J.T.3XbXAXAXAXAXAXAXSXSXSXAXAXAXAXSXSXSXSXAXAXAXAXHXHXHXHXHXHXHXHXHXHXHX",
"HXHXHXHXHXHXHXHXHXAXNXeXY.T.4XnXAXAXAXAXAXAXSXAXsXyX8XZ.z.z.^.yXtXtXjXSXSXAXAXAXHXHXHXHXHXHXHXHXHXHX",
"HXHXHXHXHXHXHXAXAXnXXXK.&XmXAXAXAXAXAXDXBXxXoXA.>.....( ^ ^ ' ......7.E.:XMXAXAXAXAXHXHXHXHXHXHXHXHX",
"HXHXHXHXHXHXAXAXlXL.S.&XBXAXAXAXAXAXCX7XC.>.| ^ ) ' @.4.4.4.4.4.=.[ ) / ..z.gXAXSXAXAXHXAXHXHXHXHXHX",
"HXHXHXHXHXAXSXcX|.D.*XBXAXAXAXAXSXjXc.#./ ] %.&.p.j.b.S.S.S.S.S.B.k.h.6.$.] 1.!.sXSXAXHXAXHXHXHXHXHX",
"HXHXHXHXHXHXHX|.D.*XBXAXAXAXAXCX].w.( [ 3.h.B.V.S.D.S.S.S.S.S.S.S.S.D.S.N.a.%.} 5.8XSXAXHXAXHXHXHXHX",
"HXHXHXHXHXHX|.J.1XBXAXAXAXAXCX^. .) 4.j.V.D.S.S.S.S.S.S.S.S.S.S.S.S.S.S.S.S.B.i.[ ,.7XDXAXAXHXHXHXHX",
"HXHXHXHXHX9XD.XXBXAXAXAXAXCX~.| _ 8.V.S.S.S.S.S.S.S.D.H.S.B.N.N.N.N.V.D.D.S.S.S.p.[ ,.].nXAXAXHXHXHX",
"HXHXHXHXMX_.J.aXAXAXAXAXBX~.| _ 0.V.S.S.S.S.S.S.D.D.j.q.=.L K K K J ~ q.y.N.D.S.S.p.{ | -XSXAXAXHXHX",
"HXHXHXAX9XS.+XBXAXAXAXNXW.} ' q.V.S.S.S.S.S.S.S.k.X.G N b j j j j j k z v T 8.n.D.S.a.{ f.mXAXAXHXHX",
"HXHXAXMX(.K.aXSXAXAXZX!.} ) 0.V.S.S.S.S.S.D.v...F m c g 4 + O o o o o O @ q M T 6.S.S.a.o.=XSXAXHXHX",
"HXHXAX5XD.@XCXAXAXSXyX>./ @.b.S.S.S.S.S.D.v.T b v s 3 +   X , < < < < @ . X - h A *.S.V.=.t.mXAXHXHX",
"HXHXmX(.S.eXSXAXAXZXE.( _ r.S.S.S.S.S.S.l.Y b b u +   O < a v b b b b j i *   * h Z &.S.h...].DXHXHX",
"HXAXhXK.R.bXAXAXSXyX:.( @.n.S.S.S.S.S.n.Y b b r + . 2 a v b b b b b b b b j *   & h C 3.D.o.d.ZXHXHX",
"HXAX%XV.XXAXAXAXSXE.) ) u.S.S.S.S.S.D.4.V v w O   5 c b b b b b b b b b b b j =   , c L b.y.I rXHXHX",
"AXAX@XM.XXZXAXAXAXC.^ $.m.S.S.S.S.S.b.P v g O   5 c b b b b b n f u u u i x b j = X 0 M 3.p.H 6XHXHX",
"SXaXI.J.eXAXAXSXuX,./ %.V.S.S.S.S.S.3.N v 2   # k b b b b v w ; $       . - p m u X @ h K j.R g.HXHX",
"FX0XD.K.lXSXAXDX7X| ( =.V.S.S.S.S.B.U v z % o p b b b b v q o               @ i v 9 . 5 m 8.) +.HXHX",
"HXqXJ.K.kXSXAXDX7X| ' s.S.S.S.S.S.m.J v w . 2 v b b b v q X                   @ p s X + k 4.) ;.HXHX",
"HXpXD.R.bXAXAXDX7X| ] k.D.S.S.S.D.6.V b q   r b b b b i X                       : l : X h Y E Q HXAX",
"HXaXS.*XAXAXAXDX7X| ] k.D.S.S.S.H.*.b x -   r b b b c :                         X i 3 X h H E m AXAX",
"SXaXS.>XSXAXAXDX7X| ] k.D.S.S.S.H.*.b l @   r b b b u o                           - , X h H W D AXAX",
"SXaXS.;XSXAXAXDX7X| ] k.D.S.S.S.H.*.b l @   r b b b 6                             . X o h S H +.AXHX",
"SXaXS.;XSXAXAXDX7X| ] k.D.S.S.S.H.*.b l @   r b b b 7                                 o j c p 2.AXHX",
"AXmX_.*XSXAXAXDX7X| ' a.S.S.S.S.D.6.V z &   r b b b 6                                 # k p 1 '.FXHX",
"AXAX@X*XSXAXAXSXzXe./ *.V.S.S.S.S.n.J v 0   q b b b p O                               5 b < > <XFXHX",
"HXAX+X&XAXAXAXAXSXF./ %.B.S.S.S.S.B.U b q   * x b b x %                             X u l % B iXHXHX",
"HXAX@XY.vXAXAXAXSX7XO.] s.S.S.S.S.S.-.N i o # z b b b 9                             : c 0   <.GXHXHX",
"HXAXeXI.kXSXAXAXAXxX7.( i.D.S.S.S.S.b.L x * X r b b b l -                         - k l # 8 {.HXHXHX",
"HXAXbXY.4XAXAXAXAXSX~./ 4.V.S.S.S.S.D.4.N 7   - x b b b k : X                 X : l b 9   ! NXHXHXHX",
"HXAXZX$XR.bXAXAXAXSX,XO.[ h.S.S.S.S.S.b.Y j % . w b b b b x u 3 % . . . . % 3 u x b i + e }.HXHXHXHX",
"HXHXHXlXY.eXSXAXAXAXBXx./ 3.B.S.S.S.S.S.k.U p o O r b b b b b b j s s s s j b b b u O e Q.SXHXHXHXHX",
"HXHXHXNX X@XZXAXAXAXSXwX4.) r.J.S.S.S.S.D.l.U 4   O w z b b b b b b b b b b b k 4 o t /.DXAXHXHXHXHX",
"HXHXHXHX0XI.aXSXAXAXAXZX.X&.5.`.K.S.S.S.S.D.l._ a .   = w z c b b b b b b x w * X d [.DXAXHXHXHXHXHX",
"HXHXHXHXmX.X$XBXAXAXAXAXcXT.v.U.@XK.V.S.S.S.S.S.s.J 0 .   # 2 y r r r y q % o w ` ,XSXAXHXHXHXHXHXHX",
"HXHXHXHXHXcX.XpXAXAXAXAXAXvX|.V.T.@XR.S.S.S.S.S.D.D.u.U p -             < p W G.kXDXAXHXHXHXHXHXHXHX",
"HXHXHXHXHXDXeX$XBXAXAXAXAXAXvX|.V.T.qX4XR.D.V.S.S.S.D.S.n.*.E E E E E E 9.`.eXVXAXAXHXHXHXHXHXHXHXHX",
"HXHXHXHXHXHXSX+X2XAXAXAXAXAXAXbX XV.T.fXMX5X$XI.K.S.V.V.V.S.H.H.L.P.|.1XpXBXSXAXAXHXHXHXHXHXHXHXHXHX",
"HXHXHXHXHXHXHXHXT.lXAXAXAXAXAXAXbX.XV.Y.9XNXZXvXlX1XXXOXOXOXOXOXqXlXnXAXAXAXAXAXHXHXHXHXHXHXHXHXHXHX",
"HXHXHXHXHXHXHXHXHX3XZXAXAXAXAXAXAXnX@XL.S.(.5XkXZXAXAXAXAXAXAXAXAXSXAXAXAXAXHXHXHXHXHXHXHXHXHXHXHXHX",
"HXHXHXHXHXHXHXHXHXHXeXAXAXAXAXAXAXAXZXdX#XK.S.K.OXaXbXbXZXSXSXSXAXAXAXAXAXHXHXHXHXHXHXHXHXHXHXHXHXHX",
"HXHXHXHXHXHXHXHXHXHXHXAXAXAXAXAXAXAXAXSXZXhX;X|.D.K.I.I.%X3X3X3XhXNXNXNXAXAXAXHXHXHXHXHXHXHXHXHXHXHX",
"HXHXHXHXHXHXHXHXHXHXHXHXHXHXAXAXAXAXAXAXAXAXSXNX9XD.V.B.V.V.V.V.T..X.XXXHXHXHXHXHXHXHXHXHXHXHXHXHXHX",
"HXHXHXHXHXHXHXHXHXHXHXHXHXHXHXHXAXAXAXAXAXAXAXAXAXZXHXHXHXHXHXHXHXHXHXHXHXHXHXHXHXHXHXHXHXHXHXHXHXHX",
"HXHXHXHXHXHXHXHXHXHXHXHXHXHXHXHXHXHXHXHXHXHXHXHXAXAXAXAXAXHXHXHXHXHXHXHXHXHXHXHXHXHXHXHXHXHXHXHXHXHX"
};
