/* XPM */
static char *result[] = {
/* columns rows colors chars-per-pixel */
"50 50 160 2 ",
"   c #010202",
".  c #050A0B",
"X  c #0D0D0D",
"o  c #091112",
"O  c #151515",
"+  c #1B1B1B",
"@  c #161A1A",
"#  c #103A3C",
"$  c #242424",
"%  c #2A2A2A",
"&  c #22292A",
"*  c #343434",
"=  c gray22",
"-  c #144648",
";  c #15494C",
":  c #1C4547",
">  c #134E51",
",  c #20474A",
"<  c #24484A",
"1  c #2D5E61",
"2  c #1C676B",
"3  c #1C6B6F",
"4  c #1D6D71",
"5  c #1D767C",
"6  c #1D787E",
"7  c #236F73",
"8  c #267275",
"9  c #20797D",
"0  c #20767A",
"q  c #4B4B4B",
"w  c gray27",
"e  c #585858",
"r  c #545859",
"t  c #727272",
"y  c #1C7E84",
"u  c #227F84",
"i  c #1A8087",
"p  c #1D8388",
"a  c #16939B",
"s  c #129197",
"d  c #228085",
"f  c #25898E",
"g  c #238B91",
"h  c #29999F",
"j  c #239096",
"k  c #069EA5",
"l  c #0C9AA3",
"z  c #1599A1",
"x  c #289AA0",
"c  c #01A3AC",
"v  c #15A4AD",
"b  c #13A9B2",
"n  c #0EB0B8",
"m  c #27A6AD",
"M  c #29A5AB",
"N  c #2BACB3",
"B  c #2DB2B8",
"V  c #4F888B",
"C  c #0DB9C2",
"Z  c #2EBEC6",
"A  c #31BDC3",
"S  c #0FC3CE",
"D  c #13C2CB",
"F  c #09CAD4",
"G  c #08CED8",
"H  c #12CCD6",
"J  c #13D2DD",
"K  c #2FC0C7",
"L  c #2DC2CA",
"P  c #26C1C9",
"I  c #32C0C7",
"U  c #32C1C9",
"Y  c #23CBD3",
"T  c #2CCFD7",
"R  c #0CD7E3",
"E  c #06D8E3",
"W  c #0BD9E5",
"Q  c #0EDFEA",
"!  c #18D6E0",
"~  c #19D9E3",
"^  c #0CE2EC",
"/  c #0AE6F1",
"(  c #02EAF5",
")  c #0CE8F3",
"_  c #01EEFA",
"`  c #0BEFFB",
"'  c #17EDF7",
"]  c #1BEEF9",
"[  c #14EBF5",
"{  c #00F1FD",
"}  c #0EF0FC",
"|  c #14F1FC",
" . c #1CF2FC",
".. c #27E7F0",
"X. c #22EFF9",
"o. c #29EFF9",
"O. c #27EDF7",
"+. c #39ECF5",
"@. c #26F1FB",
"#. c #35F2FC",
"$. c #48C7CE",
"%. c #48C8CE",
"&. c #43CAD1",
"*. c #7AD5D9",
"=. c #70D9DF",
"-. c #5CDFE5",
";. c #6BDDE3",
":. c #77DDE2",
">. c #5BE8EF",
",. c #43EBF4",
"<. c #4AECF5",
"1. c #55EDF4",
"2. c #42F3FC",
"3. c #52F4FC",
"4. c #63E8EF",
"5. c #6DE8EF",
"6. c #73E7EE",
"7. c #7EE6EC",
"8. c #72E8EE",
"9. c #65E9F0",
"0. c #77EFF6",
"q. c #6EF3F9",
"w. c #64F3FA",
"e. c #77F5FB",
"r. c #898A8A",
"t. c gray58",
"y. c #9C9C9C",
"u. c #9DB7B8",
"i. c #A6A7A7",
"p. c #AAAAAA",
"a. c #BABBBB",
"s. c #99D4D7",
"d. c #AFCED0",
"f. c #84E6EB",
"g. c #8AE5EA",
"h. c #9EE9ED",
"j. c #96EAEE",
"k. c #83EDF2",
"l. c #A7ECEF",
"z. c #AAE7EA",
"x. c #ABEEF1",
"c. c #B6EEF0",
"v. c #ADF8FB",
"b. c #B3F1F4",
"n. c #B1F8FC",
"m. c #BBFAFD",
"M. c #B4F7FB",
"N. c #CACACA",
"B. c #CCFAFC",
"V. c #C8F2F4",
"C. c #D5F6F7",
"Z. c #D6FCFD",
"A. c #DDFAFB",
"S. c #E5E8E8",
"D. c #EBEBEB",
"F. c #ECFBFC",
"G. c #E0FCFD",
"H. c #F4FDFD",
"J. c #FEFEFE",
"K. c None",
/* pixels */
"K.K.K.K.K.K.K.K.K.K.K.K.K.K.K.K.K.K.K.K.K.K.K.K.K.K.K.K.K.K.K.K.K.K.K.K.K.K.K.K.K.K.K.K.K.K.K.K.K.K.",
"K.K.K.K.K.K.K.K.K.K.K.K.K.K.K.K.K.K.K.K.K.K.K.K.K.K.K.K.K.K.K.K.K.K.K.K.K.K.K.K.K.K.K.K.K.K.K.K.K.K.",
"K.K.K.K.K.K.K.K.K.K.K.K.K.K.K.K.K.K.K.K.K.K.K.K.K.K.K.K.K.K.K.K.K.K.K.K.K.K.K.K.K.K.K.K.K.K.K.K.K.K.",
"K.K.K.K.K.K.K.K.K.K.K.K.K.K.K.K.K.K.K.O   .       .     X   O K.K.K.K.K.K.K.K.K.K.K.K.K.K.K.K.K.K.K.",
"K.K.K.K.K.K.K.K.K.K.K.K.K.K.K.K.K.K.K.O                     X K.K.K.K.K.K.K.K.K.K.K.K.K.K.K.K.K.K.K.",
"K.K.K.K.K.K.K.K.K.K.K.K.K.K.K.K.K.K.K.O                     O K.K.K.K.K.K.K.K.K.K.K.K.K.K.K.K.K.K.K.",
"K.K.K.K.K.K.K.K.K.K.K.K.K.K.K.K.* % * t.i.p.i.p.i.i.p.i.i.p.t.= % = K.K.K.K.K.K.K.K.K.K.K.K.K.K.K.K.",
"K.K.K.K.K.K.K.K.K.K.K.K.K.K.K.K.O   X N.J.J.J.J.J.J.J.J.J.J.N.X   O K.K.K.K.K.K.K.K.K.K.K.K.K.K.K.K.",
"K.K.K.K.K.K.K.K.K.K.K.K.K.K.K.K.O   X N.J.J.J.J.J.J.J.J.J.J.N.X   X K.K.K.K.K.K.K.K.K.K.K.K.K.K.K.K.",
"K.K.K.K.K.K.K.K.K.K.K.K.K.K.K.e e q e s.v.v.v.n.v.v.v.n.C.A.d.: # < K.K.K.K.K.K.K.K.K.K.K.K.K.K.K.K.",
"K.K.K.K.K.K.K.K.K.K.K.K.K.$   X a.J.F.#.{ { { _ { ` { ] f.g.:.A A g .   % K.K.K.K.K.K.K.K.K.K.K.K.K.",
"K.K.K.K.K.K.K.K.K.K.K.K.K.+   . a.J.H.#.{ { { { { { { ' f.g.:.A I g     + K.K.K.K.K.K.K.K.K.K.K.K.K.",
"K.K.K.K.K.K.K.K.K.K.K.K.K.% O @ a.H.F.#.{ { { { _ ` ` X.6.f.5.A L j o . & K.K.K.K.K.K.K.K.K.K.K.K.K.",
"K.K.K.K.K.K.K.K.K.K.* X O y.N.N.z.l.j.X.{ { { _  .n.Z.n.o.] ' / / J x h 8 + O * K.K.K.K.K.K.K.K.K.K.",
"K.K.K.K.K.K.K.K.K.K.%     p.J.J.l.f.7.] { { { {  .G.J.Z.| { { { { ) K I d     % K.K.K.K.K.K.K.K.K.K.",
"K.K.K.K.K.K.K.K.K.K.%     p.J.J.l.g.f.] { { { {  .A.J.Z.| { { { { ^ Z I d     % K.K.K.K.K.K.K.K.K.K.",
"K.K.K.K.K.K.K.K.K.K.$   . p.J.J.0.,.<.q.0.e.<.+.1.b.V.c.<.,.+.{ { ( ! ~ a     % K.K.K.K.K.K.K.K.K.K.",
"K.K.K.K.K.K.K.K.K.K.%     p.J.H.2._ ` B.J.H.h.g.g.g.f.g.g.g.5._ { { { { c     % K.K.K.K.K.K.K.K.K.K.",
"K.K.K.K.K.K.K.K.K.K.%     p.J.H.2._ } B.J.H.h.g.g.g.g.g.g.g.5.} { { { { c     % K.K.K.K.K.K.K.K.K.K.",
"K.K.K.K.K.K.K.K.K.K.w % % u.Z.Z.3.@.#.n.Z.B.k.8.6.8.8.8.8.8.>.) ) ( { { n % % w K.K.K.K.K.K.K.K.K.K.",
"K.K.K.K.K.K.K.+ X   y.D.S.1.|  .n.F.Z.2.| | ` ` ` ` ` ` ` } ) L Z H ` { <.S.D.p.K.K.K.K.K.K.K.K.K.K.",
"K.K.K.K.K.K.K.O     y.J.J.3.{ { m.J.H.#.{ { { { { { { { { { / Z A Y _ { 3.J.J.p.    K.K.K.K.K.K.K.K.",
"K.K.K.K.K.K.K.O     y.J.H.3._ } m.J.H.#.{ { { { { { { { { { / Z A Y _ { 3.J.J.i.    K.K.K.K.K.K.K.K.",
"K.K.K.K.K.K.K.O     y.J.J.3.{ { k.c.l.@.{ { { { { { { { { { / Z A Y _ { ..*.*.V     K.K.K.K.K.K.K.K.",
"K.K.K.K.K.K.K.O     y.J.J.3._ { 4.f.f.] { { { { { { { { { { / Z A Y _ { ^ Z Z 5     K.K.K.K.K.K.K.K.",
"K.K.K.K.K.K.K.+     y.J.J.3._ ` 4.g.f.] { { { { { { { { { { / Z A Y { { ^ A I 9     K.K.K.K.K.K.K.K.",
"K.K.K.K.K.K.K.O     y.J.H.q.O.O.>.=.;.' { { { { { { { { { { / Z A P G G D N N 3     K.K.K.K.K.K.K.K.",
"K.K.K.K.K.K.K.+     y.J.J.l.f.f.%.B Z / { { { { { { { { { { / Z A N y y 5 y y ;     K.K.K.K.K.K.K.K.",
"K.K.K.K.K.K.K.O     y.J.J.x.g.f.%.A Z / _ { { _ { { { { { { / K Z m y 5 5 6 y >     K.K.K.K.K.K.K.K.",
"K.K.K.K.K.K.K.O     y.J.J.x.7.7.&.I L ^ ( ( ( ( ( ( ( ( ( ( ^ L L B i i y y y >     K.K.K.K.K.K.K.K.",
"K.K.K.K.K.K.K.O     y.J.H.w.' ] ) / ^ v a a a a a a a a a a v ^ ) ^ E E H B B 4     K.K.K.K.K.K.K.K.",
"K.K.K.K.K.K.K.O     y.J.J.3._ { { { ( a 5 6 6 6 6 6 5 5 5 5 a ( { { { { Q A A 5     K.K.K.K.K.K.K.K.",
"K.K.K.K.K.K.K.O     y.J.J.3._ { { { _ a 5 6 9 y 5 u 5 6 y 0 a _ _ _ { { ^ I I 0     K.K.K.K.K.K.K.K.",
"K.K.K.K.K.K.K.K.$ $ t r.r.T { _ F C C b v v v v z b v v v v v C C F _ { S 3 2 1 * % K.K.K.K.K.K.K.K.",
"K.K.K.K.K.K.K.K.K.K.$     c { { z 5 y S E R R R R R R R W W S y 5 z _ { c     % K.K.K.K.K.K.K.K.K.K.",
"K.K.K.K.K.K.K.K.K.K.%     c { _ z 5 y S R R R E R R R R W W S y 5 z { { c     % K.K.K.K.K.K.K.K.K.K.",
"K.K.K.K.K.K.K.K.K.K.$     c ` ^ z 6 y S W R R R R R R R R E S y 5 a / ` k     % K.K.K.K.K.K.K.K.K.K.",
"K.K.K.K.K.K.K.K.K.K.$     p L P g 6 y S W R R R R R R R R R S y 6 j Z Y p     % K.K.K.K.K.K.K.K.K.K.",
"K.K.K.K.K.K.K.K.K.K.%     d I A g 6 y S R R R R R R R R R R S y 6 g Z I u     % K.K.K.K.K.K.K.K.K.K.",
"K.K.K.K.K.K.K.K.K.K.%     d U B g y y D W R R R R R R R R R S y 6 g B I d     % K.K.K.K.K.K.K.K.K.K.",
"K.K.K.K.K.K.K.K.K.K.K.K.K., - ; g m m H E R R R R R R W R E H m M g ; - < K.K.K.K.K.K.K.K.K.K.K.K.K.",
"K.K.K.K.K.K.K.K.K.K.K.K.K.+     g I I J R R R W R R R W R E J K I g     $ K.K.K.K.K.K.K.K.K.K.K.K.K.",
"K.K.K.K.K.K.K.K.K.K.K.K.K.+     g I L ! W W W W W W W W W W ! L I g     $ K.K.K.K.K.K.K.K.K.K.K.K.K.",
"K.K.K.K.K.K.K.K.K.K.K.K.K.% X o 7 f f a l l l l l l z l l l a g g 8 @ X * K.K.K.K.K.K.K.K.K.K.K.K.K.",
"K.K.K.K.K.K.K.K.K.K.K.K.K.K.K.K.O               .                 @ K.K.K.K.K.K.K.K.K.K.K.K.K.K.K.K.",
"K.K.K.K.K.K.K.K.K.K.K.K.K.K.K.K.O                                 X K.K.K.K.K.K.K.K.K.K.K.K.K.K.K.K.",
"K.K.K.K.K.K.K.K.K.K.K.K.K.K.K.K.+     . . .   X   . . .   X   .   O K.K.K.K.K.K.K.K.K.K.K.K.K.K.K.K.",
"K.K.K.K.K.K.K.K.K.K.K.K.K.K.K.K.K.K.K.K.K.K.K.K.K.K.K.K.K.K.K.K.K.K.K.K.K.K.K.K.K.K.K.K.K.K.K.K.K.K.",
"K.K.K.K.K.K.K.K.K.K.K.K.K.K.K.K.K.K.K.K.K.K.K.K.K.K.K.K.K.K.K.K.K.K.K.K.K.K.K.K.K.K.K.K.K.K.K.K.K.K.",
"K.K.K.K.K.K.K.K.K.K.K.K.K.K.K.K.K.K.K.K.K.K.K.K.K.K.K.K.K.K.K.K.K.K.K.K.K.K.K.K.K.K.K.K.K.K.K.K.K.K."
};
