/* XPM */
static char *result[] = {
/* columns rows colors chars-per-pixel */
"50 50 156 2 ",
"   c #000101",
".  c #03090A",
"X  c #0C0C0C",
"o  c #0E1313",
"O  c #121212",
"+  c #1C1C1C",
"@  c #1D2424",
"#  c #073739",
"$  c #232323",
"%  c #2A2A2A",
"&  c #333333",
"*  c #0C4446",
"=  c #0D474B",
"-  c #0B4B4F",
";  c #194345",
":  c #0B4E51",
">  c #214B4D",
",  c #285E61",
"<  c #15676B",
"1  c #166B6F",
"2  c #1B6E73",
"3  c #17767C",
"4  c #1A777B",
"5  c #197A7E",
"6  c #217276",
"7  c gray27",
"8  c gray30",
"9  c #535758",
"0  c #575858",
"q  c gray35",
"w  c #717171",
"e  c #167981",
"r  c #158186",
"t  c #1C8186",
"y  c #148289",
"u  c #188489",
"i  c #1F898F",
"p  c #1C8D92",
"a  c #0D949B",
"s  c #1E9197",
"d  c #10989F",
"f  c #208A8F",
"g  c #208C92",
"h  c #039CA4",
"j  c #0D9AA2",
"k  c #249BA1",
"l  c #00A4AD",
"z  c #0DA5AE",
"x  c #0BAAB3",
"c  c #05B1B9",
"v  c #23A7AD",
"b  c #27ACB2",
"n  c #23B0B7",
"m  c #28B0B7",
"M  c #29B3B9",
"N  c #4E898C",
"B  c #04BAC3",
"V  c #2CBDC4",
"C  c #33BDC4",
"Z  c #06C4CF",
"A  c #0BC3CC",
"S  c #09CDD6",
"D  c #02CFD9",
"F  c #09CDD8",
"G  c #02C9D3",
"H  c #1DCCD4",
"J  c #0AD2DD",
"K  c #2CC0C7",
"L  c #25C2CA",
"P  c #2CC2C9",
"I  c #33C0C7",
"U  c #28D0D8",
"Y  c #0CD5E0",
"T  c #04D9E4",
"R  c #11D7E1",
"E  c #12DAE4",
"W  c #04E2ED",
"Q  c #02E7F1",
"!  c #09E7F0",
"~  c #01EBF5",
"^  c #0FEDF6",
"/  c #00E5FF",
"(  c #01EFFA",
")  c #0EEFFA",
"_  c #1FEEF7",
"`  c #14EEF9",
"'  c #1CEFF9",
"]  c #00F1FD",
"[  c #0BF0FB",
"{  c #13F1FC",
"}  c #18F2FC",
"|  c #24EBF3",
" . c #2FEDF6",
".. c #3EECF4",
"X. c #2FF2FC",
"o. c #21F1FB",
"O. c #33F3FC",
"+. c #7AD6DA",
"@. c #6BDEE4",
"#. c #74DCE2",
"$. c #5BE9EF",
"%. c #5CE0E6",
"&. c #45ECF4",
"*. c #49EEF5",
"=. c #58EEF4",
"-. c #50EDF4",
";. c #40F3FC",
":. c #51F4FC",
">. c #63E9EF",
",. c #6DE9EF",
"<. c #73E9EE",
"1. c #7DE8ED",
"2. c #65EAF0",
"3. c #77EFF6",
"4. c #6EF3F9",
"5. c #64F3FA",
"6. c #77F5FB",
"7. c #8A8B8B",
"8. c #959595",
"9. c #9D9D9D",
"0. c #9EB8B9",
"q. c #A7A8A8",
"w. c #ABABAB",
"e. c #BBBCBC",
"r. c #9AD5D8",
"t. c #B0CFD1",
"y. c #83E6EC",
"u. c #8CE6EB",
"i. c #82E8ED",
"p. c #97EBEE",
"a. c #9EEAEE",
"s. c #84EDF2",
"d. c #A0EBEE",
"f. c #A9EDEF",
"g. c #ACE3E6",
"h. c #ABEEF1",
"j. c #B4EEF0",
"k. c #AEF8FB",
"l. c #B4F1F4",
"z. c #B5F7FB",
"x. c #B2F8FC",
"c. c #BCFAFD",
"v. c #CACACA",
"b. c #D0D0D0",
"n. c #CCFAFC",
"m. c #C9F2F4",
"M. c #D6F6F7",
"N. c #DAFBFC",
"B. c #D0FAFC",
"V. c #E6E9E9",
"C. c #ECECEC",
"Z. c #E1FCFD",
"A. c #ECFBFC",
"S. c #F4FDFD",
"D. c #FEFFFF",
"F. c None",
/* pixels */
"F.F.F.F.F.F.F.F.F.F.F.F.F.F.F.F.F.F.F.F.F.F.F.F.F.F.F.F.F.F.F.F.F.F.F.F.F.F.F.F.F.F.F.F.F.F.F.F.F.F.",
"F.F.F.F.F.F.F.F.F.F.F.F.F.F.F.F.F.F.F.F.F.F.F.F.F.F.F.F.F.F.F.F.F.F.F.F.F.F.F.F.F.F.F.F.F.F.F.F.F.F.",
"F.F.F.F.F.F.F.F.F.F.F.F.F.F.F.F.F.F.F.F.F.F.F.F.F.F.F.F.F.F.F.F.F.F.F.F.F.F.F.F.F.F.F.F.F.F.F.F.F.F.",
"F.F.F.F.F.F.F.F.F.F.F.F.F.F.F.F.F.F.F.X                     X F.F.F.F.F.F.F.F.F.F.F.F.F.F.F.F.F.F.F.",
"F.F.F.F.F.F.F.F.F.F.F.F.F.F.F.F.F.F.F..                     . F.F.F.F.F.F.F.F.F.F.F.F.F.F.F.F.F.F.F.",
"F.F.F.F.F.F.F.F.F.F.F.F.F.F.F.F.F.F.F.X                     X F.F.F.F.F.F.F.F.F.F.F.F.F.F.F.F.F.F.F.",
"F.F.F.F.F.F.F.F.F.F.F.F.F.F.F.F.& $ & 8.w.q.q.q.q.q.q.q.q.w.8.& % & F.F.F.F.F.F.F.F.F.F.F.F.F.F.F.F.",
"F.F.F.F.F.F.F.F.F.F.F.F.F.F.F.F.O     v.D.D.D.D.D.D.D.D.D.D.v..   . F.F.F.F.F.F.F.F.F.F.F.F.F.F.F.F.",
"F.F.F.F.F.F.F.F.F.F.F.F.F.F.F.F.O   . v.D.D.D.D.D.D.D.D.D.D.v.    . F.F.F.F.F.F.F.F.F.F.F.F.F.F.F.F.",
"F.F.F.F.F.F.F.F.F.F.F.F.F.F.F.q 0 8 9 r.k.k.k.k.k.k.k.z.M.N.t.; # ; F.F.F.F.F.F.F.F.F.F.F.F.F.F.F.F.",
"F.F.F.F.F.F.F.F.F.F.F.F.F.+     e.D.A.O.( ] ] ( ( ] ( ` i.u.#.C V g     $ F.F.F.F.F.F.F.F.F.F.F.F.F.",
"F.F.F.F.F.F.F.F.F.F.F.F.F.O     e.D.A.O.] ] ] ] ] ] ] ) 1.p.#.C K s     + F.F.F.F.F.F.F.F.F.F.F.F.F.",
"F.F.F.F.F.F.F.F.F.F.F.F.F.% . O e.D.A.X.] ] ] ] ] [ [ ' <.i.@.P P s .   @ F.F.F.F.F.F.F.F.F.F.F.F.F.",
"F.F.F.F.F.F.F.F.F.F.& . X 8.b.v.g.d.p.' ] ] ] ( [ z.n.D.D.D.D.D.~ J k k 6 O X & F.F.F.F.F.F.F.F.F.F.",
"F.F.F.F.F.F.F.F.F.F.$     w.D.D.f.u.1.` ] ] ] ] } Z.D.D.D.D.D.D.] Q P P u     $ F.F.F.F.F.F.F.F.F.F.",
"F.F.F.F.F.F.F.F.F.F.$     w.D.D.f.u.y.` ( ] ] ] } Z.D.D.D.D.D./ ] W V I t     $ F.F.F.F.F.F.F.F.F.F.",
"F.F.F.F.F.F.F.F.F.F.$     w.D.D.3.&.&.4.6.3.*...-.l.m.l.*.&. .( ] ~ R E a     $ F.F.F.F.F.F.F.F.F.F.",
"F.F.F.F.F.F.F.F.F.F.$     w.D.S...] [ n.D.S.a.D.D.D.D.D.u.u.,.] ] ] ] ] l     % F.F.F.F.F.F.F.F.F.F.",
"F.F.F.F.F.F.F.F.F.F.$     w.D.S.;.] ] n.D.S.a.D.D.D.D.D.u.u.,.] ] ] ] ] l     % F.F.F.F.F.F.F.F.F.F.",
"F.F.F.F.F.F.F.F.F.F.7 $ % 0.N.n.:.o.X.k.N.n.s.D.D.D.D.D.<.<.=.Q ~ ~ ] ] c $ $ 7 F.F.F.F.F.F.F.F.F.F.",
"F.F.F.F.F.F.F.O     8.C.V.=.[ { x.A.N.;.) [ ] ( ( ( ( ( ( ( ! L V H ] ] &.V.C.w.F.F.F.F.F.F.F.F.F.F.",
"F.F.F.F.F.F.F.X     9.D.D.:.( ] c.D.A.D.D.D.D.D.D.] ] ] ( ] Q P V H ( ] :.D.D.w.    F.F.F.F.F.F.F.F.",
"F.F.F.F.F.F.F.X     9.D.S.:.] ] c.D.S.D.D.D.D.D.D.] ] ] ] ] Q P V H ( ( :.D.D.q.    F.F.F.F.F.F.F.F.",
"F.F.F.F.F.F.F.X     9.D.D.:.( ( s.l.h.D.D.D.D.D.D.] ] ] ] ] Q K V H ( ( _ +.+.N     F.F.F.F.F.F.F.F.",
"F.F.F.F.F.F.F.O     9.D.D.:.] ] >.u.y.` ] ] ] ] ] ] ] ] ] ] Q P V H ( ] W V K 5     F.F.F.F.F.F.F.F.",
"F.F.F.F.F.F.F.O     9.D.S.:.( ] 2.u.y.` ] ] ] ] ] ] ] ] D.] Q P V H ] ] W V P 5     F.F.F.F.F.F.F.F.",
"F.F.F.F.F.F.F.O     9.D.D.4._ | %.#.@.^ ] ] ] ] ] ] ] ] ] ] Q V V L D D A b b 1     F.F.F.F.F.F.F.F.",
"F.F.F.F.F.F.F.O     9.D.S.j.y.y.D.D.D.D.D.D.] ] ] ] ] ] ] ] Q L K b y e e e r :     F.F.F.F.F.F.F.F.",
"F.F.F.F.F.F.F.O     9.D.D.j.u.y.D.D.D.D.D.D.( ] ] ] ] ( ] ] Q P V b e e e e e :     F.F.F.F.F.F.F.F.",
"F.F.F.F.F.F.F.X     9.D.D.f.1.y.D.D.D.D.D.D.~ ~ ~ ~ ~ ~ ~ ~ W L P n u y y e u :     F.F.F.F.F.F.F.F.",
"F.F.F.F.F.F.F.X     9.D.S.5.` ` ~ Q W z a a a a a a a a a a z W Q Q T T S M M 1     F.F.F.F.F.F.F.F.",
"F.F.F.F.F.F.F.X     9.D.S.:.] ] ] ] ~ a 3 3 e e e e e e e 3 a ~ ] ] ] ] W V P 4     F.F.F.F.F.F.F.F.",
"F.F.F.F.F.F.F.X     9.D.D.:.] ] ] ] ( a 3 5 e e e 3 e e e 3 a ( ] ] ] ] W K P 4     F.F.F.F.F.F.F.F.",
"F.F.F.F.F.F.F.F.$ $ w 7.7.U D.D.D.D.D.D.z z z z z z z z z z x B B G ] ] Z < < , & $ F.F.F.F.F.F.F.F.",
"F.F.F.F.F.F.F.F.F.F.+     l D.D.D.D.D.D.T T T T T T T T T T Z r 3 j ( ] l     % F.F.F.F.F.F.F.F.F.F.",
"F.F.F.F.F.F.F.F.F.F.+     l D.D.D.D.D.Z T T T T T T T T T T Z u 5 j ] ] l     % F.F.F.F.F.F.F.F.F.F.",
"F.F.F.F.F.F.F.F.F.F.+     h ( W j 3 e Z T T T T T T T T T T Z e 5 d Q ( h     % F.F.F.F.F.F.F.F.F.F.",
"F.F.F.F.F.F.F.F.F.F.$     u L L p e y Z T T T T T T D T T T Z y 3 p L L u     % F.F.F.F.F.F.F.F.F.F.",
"F.F.F.F.F.F.F.F.F.F.$     t P V p e r Z T T T T T T T T T T Z y e p V P t     $ F.F.F.F.F.F.F.F.F.F.",
"F.F.F.F.F.F.F.F.F.F.$     t K V p e r Z T T T T T T T T T T Z e e p V V t     $ F.F.F.F.F.F.F.F.F.F.",
"F.F.F.F.F.F.F.F.F.F.F.F.F.; = = g v b F T T T T T T T T T T F v v p = * > F.F.F.F.F.F.F.F.F.F.F.F.F.",
"F.F.F.F.F.F.F.F.F.F.F.F.F.O     g I K J T T T T T T T T T T J P I g     + F.F.F.F.F.F.F.F.F.F.F.F.F.",
"F.F.F.F.F.F.F.F.F.F.F.F.F.O     g P P Y T T T T T T T T T T Y L P g     + F.F.F.F.F.F.F.F.F.F.F.F.F.",
"F.F.F.F.F.F.F.F.F.F.F.F.F.$ . . 2 f g a h h h h h h h h h h a f g 6 O . % F.F.F.F.F.F.F.F.F.F.F.F.F.",
"F.F.F.F.F.F.F.F.F.F.F.F.F.F.F.F..               .                 X F.F.F.F.F.F.F.F.F.F.F.F.F.F.F.F.",
"F.F.F.F.F.F.F.F.F.F.F.F.F.F.F.F.X                                 . F.F.F.F.F.F.F.F.F.F.F.F.F.F.F.F.",
"F.F.F.F.F.F.F.F.F.F.F.F.F.F.F.F.O .                               O F.F.F.F.F.F.F.F.F.F.F.F.F.F.F.F.",
"F.F.F.F.F.F.F.F.F.F.F.F.F.F.F.F.F.F.F.F.F.F.F.F.F.F.F.F.F.F.F.F.F.F.F.F.F.F.F.F.F.F.F.F.F.F.F.F.F.F.",
"F.F.F.F.F.F.F.F.F.F.F.F.F.F.F.F.F.F.F.F.F.F.F.F.F.F.F.F.F.F.F.F.F.F.F.F.F.F.F.F.F.F.F.F.F.F.F.F.F.F.",
"F.F.F.F.F.F.F.F.F.F.F.F.F.F.F.F.F.F.F.F.F.F.F.F.F.F.F.F.F.F.F.F.F.F.F.F.F.F.F.F.F.F.F.F.F.F.F.F.F.F."
};
