/* XPM */
static char *result[] = {
/* columns rows colors chars-per-pixel */
"50 50 155 2 ",
"   c #000101",
".  c #03090A",
"X  c #0C0C0C",
"o  c #0E1313",
"O  c #121212",
"+  c #1C1C1C",
"@  c #1D2424",
"#  c #073739",
"$  c #232323",
"%  c #2A2A2A",
"&  c #333333",
"*  c #0C4446",
"=  c #0D474B",
"-  c #0B4B4F",
";  c #194345",
":  c #0B4E51",
">  c #214B4D",
",  c #285E61",
"<  c #15676B",
"1  c #166B6F",
"2  c #1B6E73",
"3  c #17767C",
"4  c #1A777B",
"5  c #197A7E",
"6  c #217276",
"7  c gray27",
"8  c gray30",
"9  c #535758",
"0  c #575858",
"q  c gray35",
"w  c #717171",
"e  c #177981",
"r  c #148186",
"t  c #1C8186",
"y  c #148289",
"u  c #188489",
"i  c #1F898F",
"p  c #1C8D92",
"a  c #0D949B",
"s  c #1E9197",
"d  c #10989F",
"f  c #208A8F",
"g  c #208C92",
"h  c #039CA4",
"j  c #0D99A1",
"k  c #249BA1",
"l  c #00A4AD",
"z  c #0DA5AE",
"x  c #0BAAB3",
"c  c #05B1B9",
"v  c #23A6AD",
"b  c #27ACB2",
"n  c #23B0B7",
"m  c #28B0B7",
"M  c #29B3B9",
"N  c #4E898C",
"B  c #04BAC3",
"V  c #2CBDC4",
"C  c #33BDC4",
"Z  c #06C4CF",
"A  c #0BC3CC",
"S  c #02C9D3",
"D  c #09CDD6",
"F  c #02CFD9",
"G  c #1DCDD5",
"H  c #0AD3DD",
"J  c #2BC0C7",
"K  c #25C2CA",
"L  c #2CC2C9",
"P  c #33C0C7",
"I  c #28D0D8",
"U  c #04D9E5",
"Y  c #0CD5E0",
"T  c #11D7E1",
"R  c #12DAE4",
"E  c #04E2ED",
"W  c #02E7F1",
"Q  c #09E7F0",
"!  c #01EBF5",
"~  c #0FEEF7",
"^  c #01EFFA",
"/  c #0EEFFA",
"(  c #1FEEF7",
")  c #14EEF9",
"_  c #1CEFF9",
"`  c #00F1FD",
"'  c #0CF1FC",
"]  c #13F1FC",
"[  c #18F2FC",
"{  c #2FEDF6",
"}  c #25EFF8",
"|  c #3EECF4",
" . c #21F1FB",
".. c #2FF2FC",
"X. c #33F3FC",
"o. c #46C9CF",
"O. c #41CBD2",
"+. c #7AD6DA",
"@. c #6BDEE4",
"#. c #74DCE2",
"$. c #5BE9EF",
"%. c #5CE0E6",
"&. c #45ECF4",
"*. c #49EEF5",
"=. c #58EEF4",
"-. c #50EDF4",
";. c #40F3FC",
":. c #51F4FC",
">. c #6DE9EF",
",. c #63E9EF",
"<. c #72E9EE",
"1. c #7DE8ED",
"2. c #65EAF0",
"3. c #77EFF6",
"4. c #6EF3F9",
"5. c #64F3FA",
"6. c #77F5FB",
"7. c #8A8B8B",
"8. c #959595",
"9. c #9D9D9D",
"0. c #9EB8B9",
"q. c #A7A8A8",
"w. c #ABABAB",
"e. c #BBBCBC",
"r. c #9AD5D8",
"t. c #B0CFD1",
"y. c #83E6EC",
"u. c #8BE6EB",
"i. c #82E8ED",
"p. c #97EBEE",
"a. c #9EEAEE",
"s. c #84EDF2",
"d. c #A9EDEF",
"f. c #A6E7EA",
"g. c #ABEEF1",
"h. c #B4EEF0",
"j. c #AEF8FB",
"k. c #B4F1F4",
"l. c #B2F8FC",
"z. c #BCFAFD",
"x. c #B5F7FB",
"c. c #CACACA",
"v. c #D0D0D0",
"b. c #CCFAFC",
"n. c #C9F2F4",
"m. c #D6F6F7",
"M. c #D4FBFD",
"N. c #DAFBFC",
"B. c #E6E9E9",
"V. c #ECECEC",
"C. c #E1FCFD",
"Z. c #ECFBFC",
"A. c #F4FDFD",
"S. c #FEFFFF",
"D. c None",
/* pixels */
"D.D.D.D.D.D.D.D.D.D.D.D.D.D.D.D.D.D.D.D.D.D.D.D.D.D.D.D.D.D.D.D.D.D.D.D.D.D.D.D.D.D.D.D.D.D.D.D.D.D.",
"D.D.D.D.D.D.D.D.D.D.D.D.D.D.D.D.D.D.D.D.D.D.D.D.D.D.D.D.D.D.D.D.D.D.D.D.D.D.D.D.D.D.D.D.D.D.D.D.D.D.",
"D.D.D.D.D.D.D.D.D.D.D.D.D.D.D.D.D.D.D.D.D.D.D.D.D.D.D.D.D.D.D.D.D.D.D.D.D.D.D.D.D.D.D.D.D.D.D.D.D.D.",
"D.D.D.D.D.D.D.D.D.D.D.D.D.D.D.D.D.D.D.X                     X D.D.D.D.D.D.D.D.D.D.D.D.D.D.D.D.D.D.D.",
"D.D.D.D.D.D.D.D.D.D.D.D.D.D.D.D.D.D.D..                     . D.D.D.D.D.D.D.D.D.D.D.D.D.D.D.D.D.D.D.",
"D.D.D.D.D.D.D.D.D.D.D.D.D.D.D.D.D.D.D.X                     X D.D.D.D.D.D.D.D.D.D.D.D.D.D.D.D.D.D.D.",
"D.D.D.D.D.D.D.D.D.D.D.D.D.D.D.D.& $ & 8.w.q.q.q.q.q.q.q.q.w.8.& % & D.D.D.D.D.D.D.D.D.D.D.D.D.D.D.D.",
"D.D.D.D.D.D.D.D.D.D.D.D.D.D.D.D.O     c.S.S.S.S.S.S.S.S.S.S.c..   . D.D.D.D.D.D.D.D.D.D.D.D.D.D.D.D.",
"D.D.D.D.D.D.D.D.D.D.D.D.D.D.D.D.O     c.S.S.S.S.S.S.S.S.S.S.c.    . D.D.D.D.D.D.D.D.D.D.D.D.D.D.D.D.",
"D.D.D.D.D.D.D.D.D.D.D.D.D.D.D.q 9 8 9 r.j.j.j.j.j.j.j.x.m.N.t.; # ; D.D.D.D.D.D.D.D.D.D.D.D.D.D.D.D.",
"D.D.D.D.D.D.D.D.D.D.D.D.D.+     e.S.Z.X.` ^ ` ^ ^ ` ^ ) i.u.#.C V g     $ D.D.D.D.D.D.D.D.D.D.D.D.D.",
"D.D.D.D.D.D.D.D.D.D.D.D.D.O     e.S.A.X.` ` ` ` ` ` ` / 1.p.#.C J g     + D.D.D.D.D.D.D.D.D.D.D.D.D.",
"D.D.D.D.D.D.D.D.D.D.D.D.D.% . O e.S.Z...` ` ` ` ` ` ^ _ <.i.@.L L s . . @ D.D.D.D.D.D.D.D.D.D.D.D.D.",
"D.D.D.D.D.D.D.D.D.D.& . X 8.v.c.f.f.p._ ` ` ` ^ ] x.M.l.} ) / ! ! H k k 6 O X & D.D.D.D.D.D.D.D.D.D.",
"D.D.D.D.D.D.D.D.D.D.$     w.S.S.d.u.1.) ` ` ` ^ [ C.S.M.' ` ` ` ` W L L u     $ D.D.D.D.D.D.D.D.D.D.",
"D.D.D.D.D.D.D.D.D.D.$     w.S.S.g.u.y.) ^ ` ` ` [ C.S.N.' ` ` ` ` E V P t     $ D.D.D.D.D.D.D.D.D.D.",
"D.D.D.D.D.D.D.D.D.D.$     w.S.S.3.&.&.4.6.3.*.| -.k.n.g.*.&.{ ` ` ! T R a     $ D.D.D.D.D.D.D.D.D.D.",
"D.D.D.D.D.D.D.D.D.D.$     w.S.A.| ` ` b.S.A.a.u.u.u.u.u.u.u.>.` ` ` ` ` l     % D.D.D.D.D.D.D.D.D.D.",
"D.D.D.D.D.D.D.D.D.D.$     w.S.A.;.` ` b.S.A.a.u.u.u.u.u.u.u.>.^ ` ` ` ` l     % D.D.D.D.D.D.D.D.D.D.",
"D.D.D.D.D.D.D.D.D.D.7 $ % 0.N.b.:. ...x.N.b.s.<.<.<.<.<.<.<.$.! ! ! ` ` c $ $ 7 D.D.D.D.D.D.D.D.D.D.",
"D.D.D.D.D.D.D.O     8.V.B.=.^ [ x.Z.N.;./ / ` ^ ^ ^ ^ ` ^ ' Q K J G ^ ` &.B.V.w.D.D.D.D.D.D.D.D.D.D.",
"D.D.D.D.D.D.D.X     9.S.S.:.^ ` z.S.A.X.` ` ` ` ` ` ` ` ` ` W J V G ` S.:.S.S.w.    D.D.D.D.D.D.D.D.",
"D.D.D.D.D.D.D.X     9.S.A.:.` ` z.S.A.X.^ ` ` ` ` ` ` ` ` ` W J V S.S.S.S.S.S.q.    D.D.D.D.D.D.D.D.",
"D.D.D.D.D.D.D.X     9.S.S.:.` ^ s.k.g.[ ` ` ` ` ` ` ` ` ` ` W J V S.S.S.S.+.+.N     D.D.D.D.D.D.D.D.",
"D.D.D.D.D.D.D.O     9.S.S.:.^ ` ,.u.y.) ` ` ` ` ` ` ` ` ` ` W J S.S.S.S.E V V e     D.D.D.D.D.D.D.D.",
"D.D.D.D.D.D.D.O     9.S.A.:.^ ^ ,.u.y.) ` ` ` ` ` ` ` ` ` ` W J S.S.S.S.E V L 5     D.D.D.D.D.D.D.D.",
"D.D.D.D.D.D.D.O     9.S.S.4.( } %.#.@./ ` ` ` ` ` ` ` ` ` ` W J V K F F A b b 1     D.D.D.D.D.D.D.D.",
"D.D.D.D.D.D.D.O     9.S.S.d.u.y.o.V J W ` ` ` ` ` ` ` ` ` ` W S.S.b r e e e r :     D.D.D.D.D.D.D.D.",
"D.D.D.D.D.D.D.O     9.S.S.h.y.u.o.V K W ^ ` ` ` ` ` S.S.S.S.S.S.S.b e e e e e :     D.D.D.D.D.D.D.D.",
"D.D.D.D.D.D.D.X     9.S.S.g.1.y.O.V K E ! W ! ! ! ! S.S.S.S.S.S.S.n u y y e t :     D.D.D.D.D.D.D.D.",
"D.D.D.D.D.D.D.X     8.S.A.5.) ) ! W E z a a a a a a S.S.S.S.S.S.S.E U U D M M 1     D.D.D.D.D.D.D.D.",
"D.D.D.D.D.D.D.X     9.S.S.:.^ ` ` ` ! a 5 e 5 e e e S.S.S.S.S.S.S.` ` ` E V L 4     D.D.D.D.D.D.D.D.",
"D.D.D.D.D.D.D.X     9.S.S.:.` ` ` ` ^ a 3 5 e e 5 e e e e 5 a ! ` ` ` ` E J L 4     D.D.D.D.D.D.D.D.",
"D.D.D.D.D.D.D.D.$ $ w 7.7.I ` ^ S B B x S.S.S.S.S.z z z z z x B B S ` ` Z < < , & $ D.D.D.D.D.D.D.D.",
"D.D.D.D.D.D.D.D.D.D.+     l ` ` j 3 r Z S.S.S.S.S.U U U U U S e 3 j ^ ` l     % D.D.D.D.D.D.D.D.D.D.",
"D.D.D.D.D.D.D.D.D.D.+     l ` ^ j 3 r Z S.S.S.S.S.U U U U U Z S.S.S.` ` l     % D.D.D.D.D.D.D.D.D.D.",
"D.D.D.D.D.D.D.D.D.D.+     l ! E a 5 y Z S.S.S.S.S.U U U U U Z S.S.d W ^ h     % D.D.D.D.D.D.D.D.D.D.",
"D.D.D.D.D.D.D.D.D.D.$     u K K p e r Z S.S.S.S.S.U U H U U Z S.S.p K L u     % D.D.D.D.D.D.D.D.D.D.",
"D.D.D.D.D.D.D.D.D.D.$     t L V p e r Z U U U S.U U U U U U B S.S.p V L t     $ D.D.D.D.D.D.D.D.D.D.",
"D.D.D.D.D.D.D.D.D.D.$     t P V p S.S.S.U U U U U U U U U U Z y e p V V t     $ D.D.D.D.D.D.D.D.D.D.",
"D.D.D.D.D.D.D.D.D.D.D.D.D.; = = p v S.S.U U U U U U U U U U D b v p = * > D.D.D.D.D.D.D.D.D.D.D.D.D.",
"D.D.D.D.D.D.D.D.D.D.D.D.D.O     g S.S.S.S.U U U U U U U U U H J P g     + D.D.D.D.D.D.D.D.D.D.D.D.D.",
"D.D.D.D.D.D.D.D.D.D.D.D.D.O     g S.S.S.S.U U U U U U U U U Y L L g     + D.D.D.D.D.D.D.D.D.D.D.D.D.",
"D.D.D.D.D.D.D.D.D.D.D.D.D.$ . . 2 i i j h h h h h h h h h h a f g 6 O . % D.D.D.D.D.D.D.D.D.D.D.D.D.",
"D.D.D.D.D.D.D.D.D.D.D.D.D.D.D.D.X                                 X D.D.D.D.D.D.D.D.D.D.D.D.D.D.D.D.",
"D.D.D.D.D.D.D.D.D.D.D.D.D.D.D.D.X                                 . D.D.D.D.D.D.D.D.D.D.D.D.D.D.D.D.",
"D.D.D.D.D.D.D.D.D.D.D.D.D.D.D.D.O             .                   O D.D.D.D.D.D.D.D.D.D.D.D.D.D.D.D.",
"D.D.D.D.D.D.D.D.D.D.D.D.D.D.D.D.D.D.D.D.D.D.D.D.D.D.D.D.D.D.D.D.D.D.D.D.D.D.D.D.D.D.D.D.D.D.D.D.D.D.",
"D.D.D.D.D.D.D.D.D.D.D.D.D.D.D.D.D.D.D.D.D.D.D.D.D.D.D.D.D.D.D.D.D.D.D.D.D.D.D.D.D.D.D.D.D.D.D.D.D.D.",
"D.D.D.D.D.D.D.D.D.D.D.D.D.D.D.D.D.D.D.D.D.D.D.D.D.D.D.D.D.D.D.D.D.D.D.D.D.D.D.D.D.D.D.D.D.D.D.D.D.D."
};
