/* XPM */
static char *result[] = {
/* columns rows colors chars-per-pixel */
"50 50 158 2 ",
"   c #000101",
".  c #03090A",
"X  c #0C0C0C",
"o  c #0E1313",
"O  c #121212",
"+  c #1C1C1C",
"@  c #1D2424",
"#  c #073739",
"$  c #232323",
"%  c #2A2A2A",
"&  c #333333",
"*  c #0C4446",
"=  c #0D474B",
"-  c #0B4B4F",
";  c #194345",
":  c #0B4E51",
">  c #214B4D",
",  c #285E61",
"<  c #15676B",
"1  c #166B6F",
"2  c #1B6E73",
"3  c #17767C",
"4  c #1A777B",
"5  c #197A7E",
"6  c #217276",
"7  c gray27",
"8  c gray30",
"9  c #535758",
"0  c #575858",
"q  c gray35",
"w  c #717171",
"e  c #177981",
"r  c #158186",
"t  c #1C8186",
"y  c #148289",
"u  c #188489",
"i  c #1F898F",
"p  c #1D8C92",
"a  c #0D949B",
"s  c #1E9197",
"d  c #10989F",
"f  c #208A8F",
"g  c #208C92",
"h  c #039CA4",
"j  c #0D9AA2",
"k  c #249BA1",
"l  c #00A4AD",
"z  c #0DA5AE",
"x  c #0BAAB3",
"c  c #05B1B9",
"v  c #23A6AD",
"b  c #27ACB2",
"n  c #23B0B7",
"m  c #28B0B7",
"M  c #29B3B9",
"N  c #4E898C",
"B  c #04BAC3",
"V  c #2CBDC4",
"C  c #33BDC4",
"Z  c #06C4CF",
"A  c #0BC3CC",
"S  c #02C9D3",
"D  c #02CFD9",
"F  c #09CDD8",
"G  c #09CCD5",
"H  c #1DCCD4",
"J  c #0AD3DD",
"K  c #2BC0C7",
"L  c #25C3CA",
"P  c #2CC1C9",
"I  c #33C0C7",
"U  c #28D0D8",
"Y  c #03D8E4",
"T  c #0CD5E0",
"R  c #11D7E1",
"E  c #12DAE4",
"W  c #04E2ED",
"Q  c #02E7F1",
"!  c #09E7F0",
"~  c #01EBF5",
"^  c #0FEEF7",
"/  c #01EFFA",
"(  c #0EEFFA",
")  c #1FEEF7",
"_  c #14EEF9",
"`  c #1CEFF9",
"'  c #00F1FD",
"]  c #0CF1FC",
"[  c #13F1FC",
"{  c #18F2FC",
"}  c #18FFFF",
"|  c #24EBF3",
" . c #2FEDF6",
".. c #24EFF9",
"X. c #3EECF4",
"o. c #21F1FB",
"O. c #2FF2FC",
"+. c #33F3FC",
"@. c #46C9CF",
"#. c #41CBD2",
"$. c #7AD6DA",
"%. c #6BDEE4",
"&. c #74DCE2",
"*. c #5CE5EB",
"=. c #45ECF4",
"-. c #49EEF5",
";. c #58EEF4",
":. c #50EDF4",
">. c #40F3FC",
",. c #51F4FC",
"<. c #6DE9EF",
"1. c #63E9EF",
"2. c #72E9EE",
"3. c #7DE8ED",
"4. c #65EAF0",
"5. c #77EFF6",
"6. c #6EF3F9",
"7. c #64F3FA",
"8. c #77F5FB",
"9. c #8A8B8B",
"0. c #959595",
"q. c #9D9D9D",
"w. c #9EB8B9",
"e. c #A7A8A8",
"r. c #ABABAB",
"t. c #BBBCBC",
"y. c #9AD5D8",
"u. c #B0CFD1",
"i. c #83E6EC",
"p. c #8BE6EB",
"a. c #82E8ED",
"s. c #97EBEE",
"d. c #9EEAEE",
"f. c #84EDF2",
"g. c #A9EDEF",
"h. c #A6E7EA",
"j. c #ABEEF1",
"k. c #B4EEF0",
"l. c #AEF8FB",
"z. c #B4F1F4",
"x. c #B2F8FC",
"c. c #BCFAFD",
"v. c #B5F7FB",
"b. c #CACACA",
"n. c #D0D0D0",
"m. c #CCFAFC",
"M. c #C9F2F4",
"N. c #D6F6F7",
"B. c #D4FBFD",
"V. c #DAFBFC",
"C. c #E6E9E9",
"Z. c #ECECEC",
"A. c #E0F7FA",
"S. c #E1FCFD",
"D. c #ECFBFC",
"F. c #F4FDFD",
"G. c #FEFFFF",
"H. c None",
/* pixels */
"H.H.H.H.H.H.H.H.H.H.H.H.H.H.H.H.H.H.H.H.} } } } } } H.H.H.H.H.H.H.H.H.} } H.H.H.H.H.H.H.H.H.H.H.H.H.",
"H.H.H.H.H.H.H.H.H.H.H.H.H.H.H.H.H.H.} } } } } } } } } } } } } } } } } } } H.H.H.H.H.H.H.H.H.H.H.H.H.",
"H.H.H.H.H.H.H.H.H.H.H.H.H.H.H.H.} } } } H.H.H.H.H.H.H.} } } } A.A.A.A.A.} H.H.H.H.H.H.H.H.H.H.H.H.H.",
"H.H.H.H.H.} } A.} } } H.H.H.H.} } H.H.X                     } } } A.A.} } H.H.H.H.H.H.H.H.H.H.H.H.H.",
"H.H.H.H.H.} A.A.} } } } } } H.H.} H.H..                     . H.} } } } H.H.H.} } H.H.H.H.H.H.H.H.H.",
"H.H.H.H.H.} A.A.A.A.} } } } } } } H.H.X                     X H.H.} H.H.H.H.} } } } } H.H.H.H.H.H.H.",
"H.H.H.H.H.} A.A.} A.A.A.} } } H.& $ & 0.r.r.r.e.r.r.r.e.e.r.0.& % & H.H.H.} } } } A.} H.H.H.H.H.H.H.",
"H.H.H.H.H.H.} A.} } A.A.} } } H.O     b.G.G.G.G.G.G.G.G.G.G.b..   . H.H.H.} } } } } } H.H.H.H.H.H.H.",
"H.H.H.H.H.H.} A.A.A.A.} } H.H.H.O   . b.G.G.G.G.G.G.G.G.G.G.b..   . H.H.H.H.} } } } H.H.H.H.H.H.H.H.",
"H.H.H.H.H.} } A.A.A.A.} } H.H.q 0 8 9 y.x.l.l.l.l.l.l.v.N.N.u.; # ; H.H.H.H.} } } } H.H.H.H.H.H.H.H.",
"H.H.H.H.H.} A.A.A.A.} } } +     t.G.D.+.' ' ' / / / ' _ f.p.$.C V g     $ H.} } } } H.H.} } H.H.H.H.",
"H.H.H.H.H.} } A.} } } } H.O     t.G.D.+./ ' ' ' / ' ' ( 3.p.&.I K g     + H.} H.H.H.H.H.} } H.H.H.H.",
"H.H.H.H.H.H.} } } H.H.H.H.% . O t.G.D.O.' ' ' ' ' ' ] ` 2.i.%.P L s . . @ H.H.H.H.H.H.} } } H.H.H.H.",
"H.H.H.H.H.H.} H.H.H.& . X 0.n.b.h.h.s.` ' ' ' / [ v.m.x..._ _ ~ Q J k k 6 O X & H.H.} } } } H.H.H.H.",
"H.} H.H.} H.} } H.H.$     r.G.G.g.p.3._ ' ' ' / { S.G.B.] ' ' ' ' Q K P u     $ H.} } A.A.} H.H.H.H.",
"H.} } } } } H.} H.H.$     r.G.G.g.p.i._ / ' ' ' { S.G.V.] ' ' ' ' W K I t     $ H.} A.A.A.} H.H.H.H.",
"H.} } A.A.} } } } H.$     r.G.G.5.=.=.6.5.8.-.X.:.z.M.z.-.X. ./ ' ~ R E a     $ H.} A.A.A.} H.H.H.H.",
"H.H.} A.A.} A.A.} H.$     r.G.F.X.' ' m.G.F.d.p.p.p.p.p.p.p.<.' ' ' ' ' l     % H.A.A.A.A.} } H.H.H.",
"H.H.A.A.A.A.A.} } H.$     r.G.F.>.' ' m.G.F.d.p.p.p.p.p.p.p.<./ ' ' ' ' l     % H.} } } } } H.H.H.H.",
"H.H.} A.A.A.A.} H.H.7 $ % w.V.m.,.o.+.v.B.m.a.5.2.2.2.2.2.2.;.Q ~ ~ ' ' c $ $ 7 H.} } H.H.H.H.H.H.H.",
"H.H.H.} A.A.} }     0.Z.C.;.] [ x.D.V.>.] ( / / / / / ' / / ! L V H ' ' =.C.Z.r.H.H.H.H.H.} H.H.H.H.",
"H.H.H.H.} } } X     q.G.F.,./ ' c.G.F.+./ ' ' ' ' ' ' ' ] ' Q K V H / ' ,.G.G.r.    H.H.} } H.H.H.H.",
"H.H.} } H.} } X     q.G.G.,./ ' c.G.F.+.' ' ' ' ' ' ' ' ' ' Q K V H / / ,.G.G.r.    H.H.} H.H.H.H.H.",
"H.H.} } } H.} X     q.G.G.,.' ' f.z.j.` ' ' ' ' ' ' ' ' ' ' Q K V H / / ) $.$.N     H.H.} H.H.H.H.H.",
"H.H.} } } } A.O     q.G.G.,.' / 1.p.i._ ' ' ' ' ' ' ' ' ' ' Q K V H / ' W V K 3     H.H.} H.H.H.H.H.",
"H.H.H.} A.} A.O     q.G.G.,./ ' 1.p.i._ ' ' ' ' ' ' ' ' ' ' Q K V H ' ' W V K 3     H.H.} H.H.H.H.H.",
"H.H.H.} } } A.O     q.G.F.6.) | *.$.%.( ' ' ' ' ' ' ' ' ' ' Q K V L D D A b b 1     H.H.} H.H.H.H.H.",
"H.H.} } } } A.O     q.G.G.g.i.i.#.V K Q ' ' ' ' ' ' ' ' ' ' Q K K m y e e e r :     H.H.} H.H.H.H.H.",
"H.H.} } A.} } O     q.G.G.j.i.p.@.V V ~ / / ' ' ' ' ' / ' ' Q K V b e e e e e :     H.H.} H.H.H.H.H.",
"H.H.H.} } } } X     q.G.G.j.i.3.#.V L W ~ ~ ~ ~ ~ ~ ~ ~ ~ ~ Q L K n y y y e r :     H.H.} H.H.H.H.H.",
"H.H.H.H.H.} A.X     0.G.G.7._ _ ~ Q W z a a a a a a a a a a z W Q Q Y Y F m M 2     H.} } H.H.H.H.H.",
"H.H.H.H.H.} A.X     q.G.G.,./ ' ' ' ~ a 4 e e e e e 3 e e 3 a ~ ' ' ' ' W K K 4     } H.H.H.H.H.H.H.",
"H.H.H.H.H.H.} X     q.G.G.,.' ' ' ' ' a 3 5 e 5 e e e 3 e 3 a / ' ' ' ' W K P 4     H.H.H.H.H.H.H.H.",
"H.H.H.H.H.H.H.H.$ $ w 9.9.U ' / S B B x z z z z z z z z z z x B B S ' ' Z < < , & $ H.H.H.H.H.H.H.H.",
"H.H.H.H.H.H.H.H.H.H.+     l ' ' j 3 e Z Y Y Y Y Y Y Y Y Y Y Z r 3 j / ' l     % H.H.H.H.H.H.H.H.H.H.",
"H.H.H.H.H.H.H.H.H.H.+     l ' / j 3 y Z Y Y Y Y Y Y Y Y Y Y Z r 3 j G.G.l     % H.H.H.H.H.H.H.H.H.H.",
"H.H.H.H.H.H.H.H.H.H.+     l ~ W j 3 r Z Y Y Y Y Y Y Y Y Y Y Z y 3 G.G.G.h     % H.H.H.H.H.H.H.H.H.H.",
"H.H.H.H.H.H.H.H.H.H.$     u L L p e r Z Y T Y Y Y Y Y Y Y Y Z e e G.G.G.u     % H.H.H.H.H.H.H.H.H.H.",
"H.H.H.H.H.H.H.H.H.H.+     t P V p e y Z Y Y Y Y Y Y Y Y Y Y G.G.G.G.G.I t     $ H.H.H.H.H.H.H.H.H.H.",
"H.H.H.H.H.H.H.H.H.H.$     t I V p e r Z Y Y Y Y Y Y Y Y Y Y G.G.G.G.G.K t     $ H.H.H.H.H.H.H.H.H.H.",
"H.H.H.H.H.H.H.H.H.H.H.H.H.; = = g v b F Y Y Y Y Y Y Y G.G.Y G.G.v p = * > H.H.H.H.H.H.H.H.H.H.H.H.H.",
"H.H.H.H.H.H.H.H.H.H.H.H.H.O     g K V J Y Y G.G.Y G.G.G.G.G.G.G.I g     + H.H.H.H.H.H.H.H.H.H.H.H.H.",
"H.H.H.H.H.H.H.H.H.H.H.H.H.O     g P K T Y Y G.G.G.G.G.G.G.G.G.G.P g     + H.H.H.H.H.H.H.H.H.H.H.H.H.",
"H.H.H.H.H.H.H.H.H.H.H.H.H.$ . . 2 i p j h h h h h h h h h h a f g 6 O . % H.H.H.H.H.H.H.H.H.H.H.H.H.",
"H.H.H.H.H.H.H.H.H.H.H.H.H.H.H.H.X                                 X H.H.H.H.H.H.H.H.H.H.H.H.H.H.H.H.",
"H.H.H.H.H.H.H.H.H.H.H.H.H.H.H.H.X                                 . H.H.H.H.H.H.H.H.H.H.H.H.H.H.H.H.",
"H.H.H.H.H.H.H.H.H.H.H.H.H.H.H.H.O                                 O H.H.H.H.H.H.H.H.H.H.H.H.H.H.H.H.",
"H.H.H.H.H.H.H.H.H.H.H.H.H.H.H.H.H.H.H.H.H.H.H.H.H.H.H.H.H.H.H.H.H.H.H.H.H.H.H.H.H.H.H.H.H.H.H.H.H.H.",
"H.H.H.H.H.H.H.H.H.H.H.H.H.H.H.H.H.H.H.H.H.H.H.H.H.H.H.H.H.H.H.H.H.H.H.H.H.H.H.H.H.H.H.H.H.H.H.H.H.H.",
"H.H.H.H.H.H.H.H.H.H.H.H.H.H.H.H.H.H.H.H.H.H.H.H.H.H.H.H.H.H.H.H.H.H.H.H.H.H.H.H.H.H.H.H.H.H.H.H.H.H."
};
