/* XPM */
static char *result[] = {
/* columns rows colors chars-per-pixel */
"50 50 124 2 ",
"   c #0A070C",
".  c #0D0B0D",
"X  c #0F0A11",
"o  c #120E14",
"O  c #150D19",
"+  c #180F1D",
"@  c #141414",
"#  c #171817",
"$  c #181817",
"%  c #171219",
"&  c #1A151C",
"*  c #1A1A1B",
"=  c #1E1422",
"-  c #1E1A21",
";  c #211526",
":  c #221B25",
">  c #24162B",
",  c #251A2B",
"<  c #291D2E",
"1  c #281730",
"2  c #2B1B33",
"3  c #2F1C38",
"4  c #321E3C",
"5  c #252325",
"6  c #272827",
"7  c #272229",
"8  c #29222C",
"9  c #2D2B2D",
"0  c #2D2332",
"q  c #2D2830",
"w  c #312436",
"e  c #302C32",
"r  c #33213B",
"t  c #313131",
"y  c #361F40",
"u  c #362140",
"i  c #382142",
"p  c #3F2A47",
"a  c #442C4E",
"s  c #413147",
"d  c #433449",
"f  c #433848",
"g  c #472E51",
"h  c #492F54",
"j  c #4B3255",
"k  c #4C3C52",
"l  c #4E325A",
"z  c #51345D",
"x  c #553662",
"c  c #543860",
"v  c #5A3967",
"b  c #5B356C",
"n  c #5D3B6C",
"m  c #5F3671",
"M  c #613773",
"N  c #633B75",
"B  c #663C79",
"V  c #6A3D7D",
"C  c #474847",
"Z  c #4A444D",
"A  c #4C4B4D",
"S  c #4C4250",
"D  c #4F4A51",
"F  c #5F436C",
"G  c #62446F",
"H  c #624C6D",
"J  c #695E6E",
"K  c #664375",
"L  c #684676",
"P  c #664A72",
"I  c #694B76",
"U  c #6B447C",
"Y  c #6D4C7B",
"T  c #704D7F",
"R  c #6A5374",
"E  c #6E5977",
"W  c #6E5479",
"Q  c #71547D",
"!  c #735C7C",
"~  c #6E6174",
"^  c #736E76",
"/  c #74637B",
"(  c #78677F",
")  c #766A7B",
"_  c #796E7E",
"`  c #747375",
"'  c #777279",
"]  c #7A727E",
"[  c #7E7C7E",
"{  c #7F807F",
"}  c #6E3F82",
"|  c #6F4282",
" . c #6F4880",
".. c #714384",
"X. c #734C84",
"o. c #75438A",
"O. c #79458E",
"+. c #764C89",
"@. c #7A4D8C",
"#. c #755284",
"$. c #785686",
"%. c #765A83",
"&. c #795B85",
"*. c #7B548B",
"=. c #7C5B8A",
"-. c #7B4691",
";. c #7D4A93",
":. c #776180",
">. c #7B6485",
",. c #7D6B84",
"<. c #7D6388",
"1. c #7D7382",
"2. c #7F7B80",
"3. c #814B97",
"4. c #834B9A",
"5. c #807186",
"6. c #817C83",
"7. c #894FA2",
"8. c #8D51A5",
"9. c #8F52A8",
"0. c #9354AC",
"q. c #9757B1",
"w. c #9B59B6",
"e. c #808180",
/* pixels */
"$ o & - , 1 - o O O > - $ @ O - - 1 , @ O X > > * # @ = * , 1 * @ o O > = $ # O * : 1 : @ O X > = - ",
"# & < - * , - $ X o = * * @ , : * : : * #   = & * # = < * - , - * . O = * * @ , : * : > * $   = - # ",
"$ $ $ * * * @ # # % o * * # # * * * % % # # % # * * # # * * & @ $ $ % o $ * $ & * $ * & @ $ @ @ @ * ",
"& X # * * . = - * @ = - * @ o * * @ O = * # O = * # X % * * X = - $ @ = : $ @ o * & # o > * # % = * ",
"- 1 > $ # . = ; - $ * * * : , = # @ X > = # * * * - , > $ @ . = ; * * * * * : 1 = # @ X > - * * - * ",
"* * = & @ . O ; = * * * * # = = @ @   = = = $ * * # & = & @ . O = = & * * * * - = @ @   = = = * * * ",
"* * $ * * . @ & * * * # 5 6 7 8 5 5 # 5 < 7 6 7 5 8 0 8 7 5 # : , 7 6 5 5 - $ * * $ # . & & * * # * ",
"* $ @ # $ $ @ O * * @ @ C ` ' X.K F ` ~ W ^ ` Y } 8.9.;.| F J ` R / ` / | a $ @ @ # $ $ o & * $ @ $ ",
"$ @ = = * @ = 3 * @ = 2 S 2.2.$.../ 2.2.{ { ,.;.9.0.w.9.o. .] e.2.e.2.*.7.b @ + = * # o 2 , # O 2 : ",
"@ O u < * - 4 2 * $ : - a >.$.| &.] Q $.=.Q 1.Q } O.8.o.X.,./ #.$.$.) ,.U g   3 4 - - 2 r - # * : - ",
"@ % = @ o # - * $ * * * j $.X.>.] P v E >.L W ] W +.+.#.1./ n F ,.W L ) ) s . : # @ @ * - # * * * * ",
"* * % O O O # o # @ . @ A 2.[ 2.R G %.[ 1.] I W ,.2.[ 2./ b K ] 2.,./ K :.S $ * O o O O @ @ # o @ # ",
"$ @ * < 2 2 = X = X O o A e.2.,.` ] 1.[ ,.,.1.Y o.R R %.N b Q 2.2.<.1./ U j $ @ , 1 2 < X = X O O # ",
"% & 2 * - 1 - # X O > * D 6.1.<.[ [ ,.*.,.,.,.] _ K N ..B m ! $.$.1.<.2.1.Z o < : - > , # # X = = $ ",
"$ * - * * - & * @ @ @ # x ;.,.2.R E ..o.;.2.1.,.,.%.#.1.I b V ..O.<.[ 1.,.Z # * * * * = @ * X = # * ",
"# X $ * * @ O * * @ O & j V U ,.) n B -.=.1.%.| @...N %.1.R m o.;.,.,.X.o.j o o * * # @ * * # X = * ",
"= = = * $   > : * # - * x 8.O.| ,.) +.=.1.%...&.,.,.%...%.] %.@.,.,.....,.S = = = * @ X 1 * # # - * ",
"* - > # @ X O = = * * $ l 8.9.O.X.>.,.,.%...=.] =.*.] &...$.5.5.,...#.1.,.l - = = @ @ X = = - * * * ",
"* * - * $ X o = = * $ $ g -.8.4.| O.;.+.V &.[ ! } o.*.<.o.} -.O.| | 1.[  .l * * * * @   = = - * * * ",
"* * $ # * # @ @ * * # @ l 0.8.-...X.>.Q U 1.[ ! } 7.q.4.o.T %.>.K %.[ 1.| p * # * * # @ @ # * * @ # ",
"* @ X o * $ % , * # % , v w.w.4.U E [ [ ] { ,.3.8.q.w.0.O.L ) [ 1.2.2.=.7.c # o X @ * @ = = # o ; : ",
"@ % u 2 * & 3 3 * @ , , h 0.8.o.X.,._ ,.,._ 1.X.;.4.q.;...>.] ,.,.1.1.&.o.l   3 u - * = y 5 # & 2 : ",
"@ O 2 * $ : < : * * * * a 3.o.X.1./ n Y $.U / ) U o.;...>.] G N ;. .I 1.E p   1 - * * 7 , - * * * * ",
"# * %       # # @ $ # # S 1.,.1.E n P ] 1./ L / _ ,._ ,._ G G 3.q.8.o.I 1.Z @ * X X . o * o # # # * ",
"* # = , 1 1 - X = X X . Z ' ] / b m >.e.,.,.) K +.) ) _ I b ..q.q.8.9.o.| j * # : 1 1 , X + % X . $ ",
"# % : : , 1 = @ O O > & p b B ..M K 1.>.1.<.,.) %.N m ..B M ;.0.9.q.8.q.4.l o = : - 1 , # % X = = $ ",
"# & , * * : * * X o * $ l O./ Q b N #.o.*.6.1.[ [ ! o.7.V b o.o.-.9.q.q.w.v @ - - * - > * #   = * * ",
"# # # $ * & @ $ # # o & l } #.1.W v V O.;.1.,. .+.X.} 9.7.N M } -.8.q.;.O.l # # * * $ % @ * # o % $ ",
"% o & * * X = - * @ = - k Q } $.1.W ..@.,.,...+.=.$.U ..9.7.} -.7.q.;.| *.k o O - * # X , * # % : * ",
"- , > # @ . = > - * * $ k 1.>...#.1.<.1.,...X.1.,.,.1.+.} 0.0.9.q.;.} =.1.k - , = @ @ X 1 = - # * * ",
"* * - * $ . o = = * * $ h #.] &.| *.*.*. .+.1./ O.o./ ,.X.o.4.4.;.| >.] #.j $ - - # @   = = = * * * ",
"* * * * * X % % * * $ # d :.=.o...+.;.X.V ] e.W } Q >.*.| o.@.@.B W 2.] | h $ * * * # . # $ * * # * ",
"* # X o * * @ % * * @ % D e.2.*.U I [ ) &.[ 6.! ! [ [ ,.+.L / [ / ,.2.,.-.j & . . $ $ $ % & * # % * ",
"@ % 1 : * @ = r * @ > 0 k 1.1.#...) [ 6.[ [ ,.X._ >.6.>...#.] 2.2.[ 2.*.4.v . > , : & @ 3 : # % 3 : ",
"@ O r : * : r < * # - * p >.+.| >.] I #.*.W _ ! K X.&...#.1.E X.$.+.! ] Y a   3 2 * * 2 3 - $ * : * ",
"# % & o o o * * @ * * * k =.#.,._ G n / ,.I I ] ! %.%.%.] E b H ] ! K / _ f X - @ o @ # * # * * * $ ",
"* $ = = + + & X & o . o D { { ' G b %.[ 1.1.W I &.[ [ [ E v L 1.1.5.) L Q k $ & = + = = @ O # .   # ",
"* @ - : 2 2 - X = o = @ p P Y  .M N ,.[ 1.>.1.W o.I G X.B M Q 1.1.,.,.) X.j # @ : , 2 , X = X = = & ",
"@ & 2 * = , - # X X = - g U Y  .M N >.+.<.1.,.[ ] Y K #.B m Q *.*.1.,.2.[ A . < : = : > & #   = - * ",
"* * * * * - % # @ % o # z o.>.,.G b } o.;.1.1.%.>.%.T 1.E v B } -.=.6.>.>.k $ * * # * = @ # @ % # * ",
"@ X @ * * o = - * o = & h B | >.' K V -.<.1.#...@.o.B #.1.E m o.*.1.<.| @.j o X * * # o = * $ o = * ",
"- 1 = * # X = = * * - * A 1.#.| >.,.$.<.1.#...>.,.,.>.| +.1.>.$.1.>.| #.,.S - > - # # X , = $ $ * * ",
"* - = * @ . O = = * * * D ' 1.#...>.,.<.+...>._ @.*.1.>.| %.[ [ 1...#.1.>.j * = = @ @   = = - * * * ",
"* * * * * . o - * * * # p ! &.#.} o.-.| N / [ E } | *.$.Y / [ [ I Y ] ) U h # * * * #   = = - * * $ ",
"* # # # * # @ o * * @ o 5 t 0 8 0 r 0 > 8 q t , 0 r w 0 8 t t q : q t q < 5 $ # # # * @ @ # * # @ # ",
"# % O % * @ % 2 * @ = 0 * # o o # # @ > : # @ , - # X O % # @ O 1 * @ & 2 * # O O # * o > : # @ 1 : ",
"@ + u < - - 3 0 - @ : : # . 3 y : * , u : # & < - @ = u 0 - = 3 r * @ , : *   3 r : * 1 y : # % 2 * ",
"o % , # # - : - * * * * * X > - # * - : * * * * * @ O : # # - : - $ * $ * $ X , - # * : - - * * * $ ",
"* * % X X X % @ @ # @ @ * * & X X X X * o @ @ @ * # * O X X X @ # @ # @ # $ * & X X X @ # o @ @ @ # ",
"* # = < 2 2 = X = X X X # * # < 2 2 < X = % X X @ * # - 2 2 2 = X = X X X $ $ & < 1 3 , X = % X X # "
};
