/* XPM */
static char *result[] = {
/* columns rows colors chars-per-pixel */
"50 50 56 1 ",
"  c #8BC34A",
". c #8BC349",
"X c #8AC24A",
"o c #89C24A",
"O c #69B84D",
"+ c #67B74D",
"@ c #6FBA4C",
"# c #63B64D",
"$ c #86C14A",
"% c #61B54D",
"& c #7ABD4B",
"* c #66B74D",
"= c #50B04F",
"- c #71BA4C",
"; c #85C14A",
": c #73BB4C",
"> c #81BF4A",
", c #8CC349",
"< c #82C04A",
"1 c #87C14A",
"2 c #88C24A",
"3 c #81C04A",
"4 c #55B24F",
"5 c #56B24F",
"6 c #83C04A",
"7 c #75BC4C",
"8 c #52B14F",
"9 c #7DBE4B",
"0 c #6DB94C",
"q c #6AB84D",
"w c #6BB84D",
"e c #6CB94C",
"r c #58B34E",
"t c #84C14A",
"y c #8AC34A",
"u c #80BF4B",
"i c #57B24E",
"p c #79BD4B",
"a c #68B84D",
"s c #72BB4C",
"d c #6EB94C",
"f c #7CBE4B",
"g c #70BA4C",
"h c #54B14F",
"j c #7EBF4B",
"k c #59B34E",
"l c #65B64D",
"z c #53B14F",
"x c #78BD4B",
"c c #51B04F",
"v c #4FB04F",
"b c #5EB44E",
"n c #5BB34E",
"m c #84C04A",
"M c #74BB4C",
"N c white",
/* pixels */
"                                                  ",
"                                                  ",
"                                                  ",
"                                                  ",
"      .. ..                                       ",
"     XooXXoX                                      ",
"    .oO+X@#$.                                     ",
"    .o+%&*%$.                                     ",
"     XX&=-oX                                      ",
"      .;:>.                       X........X      ",
"      X.,.X                       .o<><o1>2.      ",
"                                  .34=56789.      ",
"                                  .$0qwwwe6.      ",
"                                  X..,$r+..X      ",
"                                     .X<t.        ",
"                                     y...         ",
"                                                  ",
"                                                  ",
"                                                  ",
"                                                  ",
"                                  ...y            ",
"                                 .6uo.            ",
"           X......X              .*i;.            ",
"           .pq$9a<.              .ps2.            ",
"           .d5fgh9.              y...y            ",
"           .1jkl6o.                               ",
"           X.2e7..X                               ",
"            y...                                  ",
"                                                  ",
"                                                  ",
"                                                  ",
"                                                  ",
"                                                  ",
"                                                  ",
"                         X........                ",
"                         .$3o1>>6X.               ",
"                         .gz>xcvb2.               ",
"                         .fqwwwqso.               ",
"                         X.2n#....y               ",
"         X.,.X            .X<mX                   ",
"         .1Mj.            y...                    ",
"         .>8e.                                    ",
"         .296.                                    ",
"         X...X                                    ",
"                                                  ",
"                                                  ",
"                                                  ",
"                                                  ",
"                                                  ",
"                                                  "
};
