/* XPM */
static char *result[] = {
/* columns rows colors chars-per-pixel */
"50 50 171 2 ",
"   c #060606",
".  c #070707",
"X  c gray3",
"o  c #090909",
"O  c gray4",
"+  c #0B0B0B",
"@  c #0C0C0C",
"#  c gray5",
"$  c #0E0E0E",
"%  c gray6",
"&  c #101010",
"*  c #111111",
"=  c gray7",
"-  c #131313",
";  c gray8",
":  c #151515",
">  c #161616",
",  c gray9",
"<  c #181818",
"1  c #191919",
"2  c gray10",
"3  c #1B1B1B",
"4  c gray11",
"5  c #1D1D1D",
"6  c #1E1E1E",
"7  c gray12",
"8  c #202020",
"9  c gray13",
"0  c #222222",
"q  c #232323",
"w  c gray14",
"e  c #252525",
"r  c gray15",
"t  c #272727",
"y  c #282828",
"u  c gray16",
"i  c #2A2A2A",
"p  c gray17",
"a  c #2C2C2C",
"s  c #2D2D2D",
"d  c gray18",
"f  c #2F2F2F",
"g  c gray19",
"h  c #313131",
"j  c #323232",
"k  c gray20",
"l  c #343434",
"z  c #353535",
"x  c gray21",
"c  c #373737",
"v  c gray22",
"b  c #393939",
"n  c #3A3A3A",
"m  c gray23",
"M  c #3C3C3C",
"N  c gray24",
"B  c #3E3E3E",
"V  c #3F3F3F",
"C  c gray25",
"Z  c #414141",
"A  c gray26",
"S  c #434343",
"D  c #444444",
"F  c gray27",
"G  c #464646",
"H  c gray28",
"J  c #484848",
"K  c #494949",
"L  c gray29",
"P  c #4B4B4B",
"I  c #4C4C4C",
"U  c gray30",
"Y  c #4E4E4E",
"T  c gray31",
"R  c #505050",
"E  c #515151",
"W  c gray32",
"Q  c #535353",
"!  c gray33",
"~  c #555555",
"^  c #565656",
"/  c gray34",
"(  c gray35",
")  c #5A5A5A",
"_  c #5B5B5B",
"`  c gray36",
"'  c #5D5D5D",
"]  c gray37",
"[  c #5F5F5F",
"{  c #606060",
"}  c gray38",
"|  c #626262",
" . c gray39",
".. c #646464",
"X. c #656565",
"o. c gray40",
"O. c #686868",
"+. c DimGray",
"@. c #6A6A6A",
"#. c gray42",
"$. c #6C6C6C",
"%. c gray43",
"&. c #6F6F6F",
"*. c gray44",
"=. c #717171",
"-. c #727272",
";. c #747474",
":. c gray46",
">. c #767676",
",. c #777777",
"<. c gray47",
"1. c #797979",
"2. c gray48",
"3. c #7B7B7B",
"4. c #7C7C7C",
"5. c gray49",
"6. c #7E7E7E",
"7. c gray50",
"8. c #808080",
"9. c #818181",
"0. c gray51",
"q. c #838383",
"w. c #848484",
"e. c gray52",
"r. c #868686",
"t. c gray53",
"y. c #888888",
"u. c #898989",
"i. c gray54",
"p. c #8B8B8B",
"a. c gray55",
"s. c #8D8D8D",
"d. c #8E8E8E",
"f. c gray56",
"g. c #909090",
"h. c #929292",
"j. c #939393",
"k. c #959595",
"l. c gray59",
"z. c #979797",
"x. c #989898",
"c. c #9A9A9A",
"v. c #9B9B9B",
"b. c gray61",
"n. c #9D9D9D",
"m. c #9F9F9F",
"M. c #A0A0A0",
"N. c gray63",
"B. c #A2A2A2",
"V. c gray64",
"C. c #A4A4A4",
"Z. c gray66",
"A. c #AAAAAA",
"S. c gray67",
"D. c gray68",
"F. c #AFAFAF",
"G. c #B6B6B6",
"H. c #B7B7B7",
"J. c gray73",
"K. c #BBBBBB",
"L. c #BCBCBC",
"P. c gray",
"I. c gray75",
"U. c #C0C0C0",
"Y. c #C1C1C1",
"T. c #C6C6C6",
"R. c #C8C8C8",
"E. c gray79",
"W. c #CDCDCD",
"Q. c #D2D2D2",
"!. c None",
/* pixels */
"!.!.!.!.!.!.!.!.!.!.!.!.!.!.!.!.!.!.!.!.!.!.!.!.!.!.!.!.!.!.!.!.!.!.!.!.!.!.!.!.!.!.!.!.!.!.!.!.!.!.",
"!.!.!.!.!.!.!.!.!.!.!.!.!.!.!.!.!.!.!.!.!.!.!.!.!.!.!.!.!.!.!.!.!.!.!.!.!.!.!.!.!.!.!.!.!.!.!.!.!.!.",
"!.!.!.!.!.!.!.!.!.!._ K F G L ' !.!.!.!.!.!.!.!.!.!.!.!.!.!.!.!.!.!.o.V z k v P !.!.!.!.!.!.!.!.!.!.",
"!.!.!.!.!.!.!.!.d & u K [ { U p * d !.!.!.!.!.!.!.!.!.!.!.!.!.!.!.; 3 V !.!.!.!.< 1 !.!.!.!.!.!.!.!.",
"!.!.!.!.!.!.!.- !.!.!.!.!.!.!.!.!.L - ] !.!.!.!.!.!.!.!.!.!.!.!.9 !.!.!.!.!.!.!.!.!.6 !.!.!.!.!.!.!.",
"!.!.!.!.!.P 4 !.!.!.!.!.!.!.!.!.!.!.!.2 U !.!.!.!.!.!.!.!.!.3 !.!.!.!.!.!.!.!.!.!.!.!.!.4 !.!.!.!.!.",
"!.!.!.!.!.< !.!.!.!.!.y 1 1 r ^ !.!.!.!.> } !.!.!.!.!.!.!.6 !.!.!.!.!.A 0 5 t !.!.!.!.!.!.q !.!.!.!.",
"!.!.!.!.- !.!.!.!.2 e | !.!.#.t : :.!.!.!.= !.!.!.!.!.!.M d !.!.!.J * j !.!.!.x ; T !.!.!.p !.!.!.!.",
"!.!.!.B n !.!.!.; O.!.!.!.!.!.!.' $ ;.!.!.m m !.!.!.!.!.* !.!.!.B 8 !.!.!.!.!.!.!.9 C !.!.!.: !.!.!.",
"!.!.!.= !.!.!.5 ..!.!.!.!.!.!.!.!.O.< !.!.!.* !.!.!.!.m M !.!.@.5 !.!.!.!.!.!.!.!.!.4 !.!.!.x !.!.!.",
"!.!.;.1 !.!.%.8 !.!.!.!.!.!.!.!.!.!.9 ! !.!.y & , , > % !.!.!.1 #.!.!.!.!.!.!.!.!.!.!.7 !.!.!.B !.!.",
"!.!.I f !.!.b E !.!.!.!.!.!.!.!.!.b # C !.!.!.!.!.!.!.!.!.!.!.; r 9.!.!.!.!.!.!.!.!.!.* !.!.!.d !.!.",
"!.!.B M !.!.t &.!.!.!.!.!.!.!.E - x !.!.!.!.!.!.!.!.!.!.!.!.!.!.Y ; a !.!.!.!.!.!.!.!.> 3.!.!.a !.!.",
"!.!.H v !.!.u +.!.!.!.!.!.!.8 e !.!.!.!.!.!.!.!.!.!.!.!.!.!.!.!.!.!.A & ` !.!.!.!.!.!.> 2.!.!.f !.!.",
"!.!.X.e !.!.C C !.!.!.!.>.: / !.!.!.!.!.!.!.!.!.!.!.!.!.!.!.!.!.!.!.!.0.2 B !.!.!.!.!.* !.!.!.x !.!.",
"!.!.!.- !.!.9.- !.!.!.#.1 3.!.!.!.!.!.!.!.!.!.!.!.!.!.!.!.!.!.!.!.!.!.!.N.w j U.!.!...5 !.!.P I !.!.",
"!.!.!.r o.!.!.j h !.@.# p ) B l v J $.!.!.!.!.!.!.!.!.!.!.!.!.h./ M z v I m @ i F.N.; $.!.!.3 !.!.!.",
"!.!.!.<.3 !.!.!.9 7 & + % l l + + j i = S !.!.!.!.!.!.!.!.0.t 3 x , O 1 a ; + + 3 2 S !.!._ w !.!.!.",
"!.!.!.!.l B !.!.b.= + j !.!.g.+ # v.!.h.a 6 m.!.!.!.!.!.I ;  .!.!.v X G !.G.] : o k !.!.!.- !.!.!.!.",
"!.!.!.!.!.5 G !.y.$ Y !.!.!.w.O @ c.!.!.!.Y 2 Z.!.!.!.K , z.!.!.!.k X m !.!.!.c.3 j !.!.< { !.!.!.!.",
"!.!.!.!.!.!.6 p < S !.!.!.!.&.O @ j.!.!.!.!.Z i !.!.1.& f.!.!.!.!.d o d !.!.!.!.!.: r > ^ !.!.!.!.!.",
"!.!.!.!.!.!.C.: 4 !.!.!.!.!.[ o + a.!.!.!.!.!.2 *.!.4 ~ !.!.!.!.!.u O w !.!.!.!.!.| . T !.!.!.!.!.!.",
"!.!.!.!.!.!.!.1 | !.!.!.!.!.^ O O t.!.!.!.!.!.| 8 F : H.!.!.!.!.!.w + 6 !.!.!.!.!.!.> :.!.!.!.!.!.!.",
"!.!.!.!.!.!.x.% Z.!.!.!.!.!.W O O 9.!.!.!.!.!.B.$ O n !.!.!.!.!.!.8 @ 2 !.!.!.!.!.!.m m !.!.!.!.!.!.",
"!.!.!.!.!.!.o.< !.!.!.!.!.!.R O O 5.!.!.!.!.!.K.; o ] !.!.!.!.!.!.4 @ < !.!.!.!.!.!.] < !.!.!.!.!.!.",
"!.!.!.!.!.!.Z 7 !.!.!.!.!.!.E O O 3.!.!.!.!.!.Y.> o %.!.!.!.!.!.!.1 @ , !.!.!.!.!.!.+.+ !.!.!.!.!.!.",
"!.!.!.!.!.!.a 1 !.!.!.!.!.!.Q O O 3.!.!.!.!.!.L.; o | !.!.!.!.!.!.2 @ , !.!.!.!.!.!.` . h.!.!.!.!.!.",
"!.!.!.!.!.!.9 $ C.!.!.!.!.!.^ O O 5.!.!.!.!.!.m.$ O C !.!.!.!.!.!.4 @ < T.!.!.!.!.!.m . w.!.!.!.!.!.",
"!.!.!.!.!.!.6 o ' !.!.!.!.!.' o O 9.!.!.!.!.!.Q y ~ < P.!.!.!.!.!.9 + 2 !.!.!.!.!.!., o 6.!.!.!.!.!.",
"!.!.!.!.!.!.7 O 1 !.!.!.!.!.X.o O t.!.!.!.!.Z.- 7.Q.w / !.!.!.!.!.u + 5 !.!.!.!.!.( + + 8.!.!.!.!.!.",
"!.!.!.!.!.!.r z 0 c !.!.!.!.=.o @ k.!.!.!.E.s n !.!.e.* w.!.!.!.!.x O 9 !.!.!.!.i.; E 4 !.!.!.!.!.!.",
"!.!.!.!.!.!.z o.!.5 b !.!.!.w.O % A.!.!.J.k e I.!.!.!.^ = 1.!.!.!.H X t !.!.!.9.: ` !.1 !.!.!.!.!.!.",
"!.!.!.!.!.!.^ V !.u.* 5 #.!.d.# & M.R.=.5 2 m.!.!.!.!.W.J # Z M.!.J X i !.V.F # B !.!.: !.!.!.!.!.!.",
"!.!.!.!.!.!.!.% g h % o o 3 q @ O 8 2 . O < z l l l l c u $ o $ 0 = O - y * X o 9 l 3 p !.!.!.!.!.!.",
"!.!.!.!.!.!.!.< , B K F 8 @ @ y F J K L w + 0 H H H A r @ & s b N S B > + % c K H j O ' !.!.!.!.!.!.",
"!.!.!.!.!.!.!.D M !.!.!.N O + q.!.!.!.!.K . Y !.!.!.!.l.# * B.!.!.!.!.u * % p.!.!.!.* !.!.!.!.!.!.!.",
"!.!.!.!.!.!.!.!.< !.!.!.= ] i / !.!.!.!.0 o i !.!.!.!.,.O O -.!.!.!.!.- #.Z s !.!.R k !.!.!.!.!.!.!.",
"!.!.!.!.!.!.!.!.z I !.i L !.-.q !.!.!.!.: x ; !.!.!.!.Z g l l !.!.!.1.> !.!., | !.: a.!.!.!.!.!.!.!.",
"!.!.!.!.!.!.!.!.!.: 8 w !.!.!.> !.!.!._ k S.1 4.!.!.!.2 6.f.- !.!.!.M B !.!.#.% - m !.!.!.!.!.!.!.!.",
"!.!.!.!.!.!.!.!.!.!.  !.!.!.!.l ~ !.!.y @.!.B H !.!.j.; K.!.4 =.!.!.> 6.!.!.!., > D.!.!.!.!.!.!.!.!.",
"!.!.!.!.!.!.!.!.!.!.j !.!.!.!.&.7 !.!.- !.!.:.9 !.!.Q f !.!.P l !.0.: !.!.!.>.% 3.!.!.!.!.!.!.!.!.!.",
"!.!.!.!.!.!.!.!.!.!.!.w !.!.!.!.* t.X.w !.!.!.- A.!.9 } !.!.s.; !.D n !.!.1.& { !.!.!.!.!.!.!.!.!.!.",
"!.!.!.!.!.!.!.!.!.!.!.!.r i !.!.j w 4 E !.!.!.q =.c.$ n.!.!.!.5 V 1 !.!.!.!.[ !.!.!.!.!.!.!.!.!.!.!.",
"!.!.!.!.!.!.!.!.!.!.!.!.!.c 1 !.P O O r.!.!.!.L g V 5 !.!.!.!.K O * !.!.!.!.!.!.!.!.!.!.!.!.!.!.!.!.",
"!.!.!.!.!.!.!.!.!.!.!.!.!.!.!.> % @ - !.!.!.!.!.+ + G !.!.!.!.!.+ @ % h !.!.!.!.!.!.!.!.!.!.!.!.!.!.",
"!.!.!.!.!.!.!.!.!.!.!.!.!.!.!.!.I ; # { !.!.!.!.= O !.!.!.!.!.!.+ p 6.!.!.!.!.!.!.!.!.!.!.!.!.!.!.!.",
"!.!.!.!.!.!.!.!.!.!.!.!.!.!.!.!.!.!.!.i > 8 x l # O d !.!.!.!.!.!.!.!.!.!.!.!.!.!.!.!.!.!.!.!.!.!.!.",
"!.!.!.!.!.!.!.!.!.!.!.!.!.!.!.!.!.!.!.!.!.!.!.!.!.!.!.!.!.!.!.!.!.!.!.!.!.!.!.!.!.!.!.!.!.!.!.!.!.!.",
"!.!.!.!.!.!.!.!.!.!.!.!.!.!.!.!.!.!.!.!.!.!.!.!.!.!.!.!.!.!.!.!.!.!.!.!.!.!.!.!.!.!.!.!.!.!.!.!.!.!.",
"!.!.!.!.!.!.!.!.!.!.!.!.!.!.!.!.!.!.!.!.!.!.!.!.!.!.!.!.!.!.!.!.!.!.!.!.!.!.!.!.!.!.!.!.!.!.!.!.!.!."
};
