/* XPM */
static char *result[] = {
/* columns rows colors chars-per-pixel */
"50 50 230 2 ",
"   c #010101",
".  c #030B04",
"X  c #080906",
"o  c #051B05",
"O  c #02150B",
"+  c #031A0C",
"@  c #0C1C0B",
"#  c #061504",
"$  c #121A0B",
"%  c #111C12",
"&  c #0B240B",
"*  c #0D2C0E",
"=  c #072406",
"-  c #0F3B0E",
";  c #022211",
":  c #0D2C15",
">  c #132511",
",  c #003219",
"<  c #06391B",
"1  c #163716",
"2  c #1A250F",
"3  c #263616",
"4  c #113821",
"5  c #253925",
"6  c #1C4C06",
"7  c #025702",
"8  c #195718",
"9  c #1B5816",
"0  c #124D18",
"q  c #2A5501",
"w  c #2B5B01",
"e  c #20451F",
"r  c #285717",
"t  c #047A06",
"y  c #1D681C",
"u  c #1F7B1A",
"i  c #326300",
"p  c #377501",
"a  c #2A6E0C",
"s  c #074823",
"d  c #154A24",
"f  c #01572B",
"g  c #214321",
"h  c #2C562C",
"j  c #2A5723",
"k  c #205C30",
"l  c #3E5724",
"z  c #166329",
"x  c #006B36",
"c  c #006F38",
"v  c #037A3C",
"b  c #167237",
"n  c #206E22",
"m  c #387838",
"M  c #297630",
"N  c #099914",
"B  c #358200",
"V  c #3E9806",
"C  c #25851A",
"Z  c #369618",
"A  c #318D12",
"S  c #02B601",
"D  c #00A90C",
"F  c #38A619",
"G  c #168738",
"H  c #288728",
"J  c #2C9B2D",
"K  c #299525",
"L  c #319D2A",
"P  c #05BF31",
"I  c #2AA426",
"U  c #29B628",
"Y  c #31AA31",
"T  c #37B834",
"R  c #3DBB25",
"E  c #418200",
"W  c #4E9B00",
"Q  c #459700",
"!  c #4F9D1F",
"~  c #44A700",
"^  c #56AB00",
"/  c #56A900",
"(  c #56B501",
")  c #49AF0C",
"_  c #4C993D",
"`  c #48B63A",
"'  c #62B639",
"]  c #02D807",
"[  c #14CB1B",
"{  c #00E700",
"}  c #02FF01",
"|  c #04FA09",
" . c #11FF0B",
".. c #00EE11",
"X. c #14FB13",
"o. c #15ED19",
"O. c #11C339",
"+. c #34C224",
"@. c #39C83A",
"#. c #30D336",
"$. c #32F434",
"%. c #54C500",
"&. c #56CC07",
"*. c #56D300",
"=. c #59D700",
"-. c #5ADB00",
";. c #44C71A",
":. c #52CD1F",
">. c #50DB1B",
",. c #67CE00",
"<. c #69D503",
"1. c #57E81F",
"2. c #4FE51F",
"3. c #6BE900",
"4. c #71E800",
"5. c #7CFD02",
"6. c #74F300",
"7. c #67E813",
"8. c #4FD222",
"9. c #4FDD24",
"0. c #50DB26",
"q. c #4ACD36",
"w. c #56D83D",
"e. c #4BCC31",
"r. c #4EE925",
"t. c #4CEC2B",
"y. c #56EA29",
"u. c #56FF37",
"i. c #4AF931",
"p. c #6AE62B",
"a. c #65FF25",
"s. c #6FF328",
"d. c #67E835",
"f. c #78F738",
"g. c #6CF22E",
"h. c #008744",
"j. c #00954C",
"k. c #039B4A",
"l. c #009E51",
"z. c #1D8243",
"x. c #279749",
"c. c #07A948",
"v. c #00A151",
"b. c #00AA57",
"n. c #10AE5C",
"m. c #05B451",
"M. c #1AB75B",
"N. c #14B34A",
"B. c #2AA84B",
"V. c #37BB4D",
"C. c #27A955",
"Z. c #38AB5A",
"A. c #2DB753",
"S. c #35B258",
"D. c #1FBB61",
"F. c #3DBB61",
"G. c #4F9D50",
"H. c #439D43",
"J. c #51B359",
"K. c #77B449",
"L. c #6FA847",
"P. c #5DBE70",
"I. c #6ABC78",
"U. c #6EAC73",
"Y. c #1EC44C",
"T. c #2BDC4C",
"R. c #39C556",
"E. c #38D859",
"W. c #2ED24B",
"Q. c #3CF641",
"!. c #3BCB68",
"~. c #2CC267",
"^. c #49CC48",
"/. c #44D943",
"(. c #58C95D",
"). c #56DA55",
"_. c #41CC55",
"`. c #66D051",
"'. c #41E442",
"]. c #4CE04A",
"[. c #46FC4A",
"{. c #4AFE4C",
"}. c #46F748",
"|. c #56EC58",
" X c #51FC51",
".X c #5AFF59",
"XX c #54F052",
"oX c #6CE944",
"OX c #71F851",
"+X c #47CB66",
"@X c #51D369",
"#X c #66CB69",
"$X c #6BD96B",
"%X c #76DD6C",
"&X c #69C276",
"*X c #79C77B",
"=X c #77D679",
"-X c #54E36C",
";X c #63FE64",
":X c #6DFF6C",
">X c #79FD68",
",X c #74E674",
"<X c #78E67C",
"1X c #6FFF70",
"2X c #78F87A",
"3X c #67E76E",
"4X c #82FF00",
"5X c #81FF1A",
"6X c #81FF35",
"7X c #93FF25",
"8X c #80B64B",
"9X c #96DC5D",
"0X c #81FF41",
"qX c #81FF4C",
"wX c #90FF4E",
"eX c #8AFB58",
"rX c #A6F356",
"tX c #90D964",
"yX c #84F864",
"uX c #88FC79",
"iX c #91EF71",
"pX c #A6ED66",
"aX c #A7F969",
"sX c #B3FE6A",
"dX c #B9FF6A",
"fX c #7BBE82",
"gX c #85BF83",
"hX c #88CA85",
"jX c #82FE83",
"kX c None",
/* pixels */
"kXkXkXkXkXkXkXkXkXkXkXkXkXkXkXkXkXkXkXkXkXkXkXkXkXkXkXkXkXkXkXkXkXkXkXkXkXkXkXkXkXkXkXkXkXkXkXkXkXkX",
"kXkXkXkXkXkXkXkXkXkXkXkXkXkXkXkXkXkXkXkXkXkXkXkXkXkXkXkXkXkXkXkXkXkXkXkXkXkXkXkXkXkXkXkXkXkXkXkXkXkX",
"kXkXkXkXkXkXkXkXkXkXkXkXkXkXkXkXkXkXkXkXkXkXkXkXkXkXkXkXkXkXkXkXkXkXkXkXkXkXkXkXkXkXkXkXkXkXkXkXkXkX",
"kXkXkXkXkXkXkXkXkXkXkXkXkXkXkXkXkXkXkXkXkXkXkXkXkXkXkXkXkXkXkXkXkXkXkXkXkXkXkXkXkXkXkXkXkXkXkXkXkXkX",
"kXkXkXkXkXkXkXkXkXkXkXkXkXkXkXkXkXkXkXkXkXkXkXkXkXkXkXkXkXkXkXkXkXkXkXkXkXkXkXkXkXkXkXkXkXkXkXkXkXkX",
"kXkXkXkXkXkXkXkXkXkXkXkXkXkXkXkXkXkXkXkXkXkXkXkXkXkXkXkXkXkXkXkXkXkXkXkXkXkXkXkXkXkXkXkXkXkXkXkXkXkX",
"kXkXkXkXkXkXkXkXkXkXkXkXkXkXkXkXkXkXkXkXkXkXkXkXkXkXkXkXkXkXkXkXkXkXkXkXkXkXkXkXkXkXkXkXkXkXkXkXkXkX",
"kXkXkXkXkXkXkXkXkXkXkXkXkXkXkXkXX                                 kXkXkXkXkXkXkXkXkXkXkXkXkXkXkXkXkX",
"kXkXkXkXkXkXkXkXkXkXkXkXkXkXkXkX; + + @ = = ; : > 2 % % % O + & * kXkXkXkXkXkXkXkXkXkXkXkXkXkXkXkXkX",
"kXkXkXkXkXkXkXkXkXkXkXkXkXkXX   x k.Y.Q.o.] $.<XtXpXtXU.U.x.B.'.@.O   kXkXkXkXkXkXkXkXkXkXkXkXkXkXkX",
"kXkXkXkXkXkXkXkXkXkXkXkXkXkX: = v M.E. X$.| Q.jXuXaXiXhX&XS.R. X^.& O kXkXkXkXkXkXkXkXkXkXkXkXkXkXkX",
"kXkXkXkXkXkXkXkXkXkXkXkX. . Y w.#XfX<X2XR.P J.hX&XS.(.jX1X}.|.*XI.k.h.O X kXkXkXkXkXkXkXkXkXkXkXkXkX",
"kXkXkXkXkXkXkXkXkXkXkXkX    T  X$XgX=X<XS.h.Z.*XP.S.+X,X3XQ.).tXI.m.k.O   kXkXkXkXkXkXkXkXkXkXkXkXkX",
"kXkXkXkXkXkXkXkXkXkXkXkX  . K.aX(.Z.k % @ O t X.i.pXL.> > & g pXeXX.] #   kXkXkXkXkXkXkXkXkXkXkXkXkX",
"kXkXkXkXkXkXkXkXkXkXkXkX    K.aX(.C.s       t | i.aXL.      5 pXeX .] o   kXkXkXkXkXkXkXkXkXkXkXkXkX",
"kXkXkXkXkXkXkXkXkXkXkXkXX   z.M.E.}.8       M :X|.M.b       > Z.R.i.#.o   kXkXkXkXkXkXkXkXkXkXkXkXkX",
"kXkXkXkXkXkXkXkXkXkXkXkX    v m.T.[.y # X O m <X+Xv.c . . O < B.V.{./.o   kXkXkXkXkXkXkXkXkXkXkXkXkX",
"kXkXkXkXkXkXkXkXkXkXkXkX    D ..O.m._.#X^.@.H 5 : ; < v G @.e.7.s.1X$Xo   kXkXkXkXkXkXkXkXkXkXkXkXkX",
"kXkXkXkXkXkXkXkXkXkXkXkX.   S } P k.@XjX;X}.H       , j.N.[.u.5.5XuX%X$   kXkXkXkXkXkXkXkXkXkXkXkXkX",
"kXkXkXkXkXkXkXkXkXkXkXkX    ' eXg.7.q.F.M - o       . ; 0 A._.>XyXaXtX$   kXkXkXkXkXkXkXkXkXkXkXkXkX",
"kXkXkXkXkXkXkXkXkXkXkXkX  . 8XsX7X4Xq.C.d     . .       < C.S.2XjXsX9X$   kXkXkXkXkXkXkXkXkXkXkXkXkX",
"kXkXkXkXkXkXkXkXkXkXkXkX    ` OXwXrXyX3Xm   7 S N k s   5 U.&X~.!.uX%X$   kXkXkXkXkXkXkXkXkXkXkXkXkX",
"kXkXkXkXkXkXkXkXkXkXkXkX    T }.eXsXuXjXm X t } [ x.z   5 gXI.n.D.2X$X@   kXkXkXkXkXkXkXkXkXkXkXkXkX",
"kXkXkXkXkXkXkXkXkXkXkXkX    - 0 x.R.|..X(.J.V.U W.tXw.S U |.XXy.:.j g X   kXkXkXkXkXkXkXkXkXkXkXkXkX",
"kXkXkXkXkXkXkXkXkXkXkXkX        x b.T.[.:XjX@XC.`.dXOX} X.[.u.5.<.#       kXkXkXkXkXkXkXkXkXkXkXkXkX",
"kXkXkXkXkXkXkXkXkXkXkXkXkXkXkXkX< < 0 8 j h g < g l r 7 7 9 9 w w kXkXkXkXkXkXkXkXkXkXkXkXkXkXkXkXkX",
"kXkXkXkXkXkXkXkXkXkXkXkXkXkXkXkX                                  kXkXkXkXkXkXkXkXkXkXkXkXkXkXkXkXkX",
"kXkXkXkXkXkXkXkXkXkXkXkXkXkXkXX H J A B A J ! W ! G.H.J Z W Q B p $ kXkXkXkXkXkXkXkXkXkXkXkXkXkXkXkX",
"kXkXkXkXkXkXkXkXkXkXkXkXkXkX    Y {.1.=.t.[.a.4X6XjX1X{.u.4X5.=.~ #   kXkXkXkXkXkXkXkXkXkXkXkXkXkXkX",
"kXkXkXkXkXkXkXkXkXkXkXkXkXkXf f z z V ( R Y.].OX0X6Xg.1.1.,.( w w K H & kXkXkXkXkXkXkXkXkXkXkXkXkXkX",
"kXkXkXkXkXkXkXkXkXkXkXkXX   x v.,   i ( J k.!.jXqX4X4.*.%.^ E   * }.'.o   kXkXkXkXkXkXkXkXkXkXkXkXkX",
"kXkXkXkXkXkXkXkXkXkXkXkX    C R -   C 0.R I ^.;Xd.3.7.oX].I u   & 0.;.#   kXkXkXkXkXkXkXkXkXkXkXkXkX",
"kXkXkXkXkXkXkXkXkXkXkXkX.   V =.6   J {.8./ 8.[.t.%.y.jX3Xl.v   & %.( o   kXkXkXkXkXkXkXkXkXkXkXkXkX",
"kXkXkXkXkXkXkXkXkXkXkXkX    F r.6   Z a.y.8.9.r.y.oXoX0Xd.U C . = I K #   kXkXkXkXkXkXkXkXkXkXkXkXkX",
"kXkXkXkXkXkXkXkXkXkXkXkX  . T {.9   W 4Xa.[.r.*.d.jXeX4X6.=.~   + j.G O   kXkXkXkXkXkXkXkXkXkXkXkXkX",
"kXkXkXkXkXkXkXkXkXkXkXkXkXkXu H *   E <.d.;X/.R e.oXp.<.=.` Z . O s f kXkXkXkXkXkXkXkXkXkXkXkXkXkXkX",
"kXkXkXkXkXkXkXkXkXkXkXkXkXkX        i ^ `.jX+Xj.U *.%./ ! C.z..       kXkXkXkXkXkXkXkXkXkXkXkXkXkXkX",
"kXkXkXkXkXkXkXkXkXkXkXkXkXkXkXkX    a 8.p.qX].U U U ;.,.&.+.H .     kXkXkXkXkXkXkXkXkXkXkXkXkXkXkXkX",
"kXkXkXkXkXkXkXkXkXkXkXkXkXkXkXkX    L {.a.4X4.=.+.b.#.4X6.=.~ .   kXkXkXkXkXkXkXkXkXkXkXkXkXkXkXkXkX",
"kXkXkXkXkXkXkXkXkXkXkXkXkXkXkXkX    H W.0.4.( B u x J f.s.%.Q     kXkXkXkXkXkXkXkXkXkXkXkXkXkXkXkXkX",
"kXkXkXkXkXkXkXkXkXkXkXkXkXkXkXkX    f k.I ^ w       h jX%X( E .   kXkXkXkXkXkXkXkXkXkXkXkXkXkXkXkXkX",
"kXkXkXkXkXkXkXkXkXkXkXkXkXkXkXkX    s x y p q       h J._ p q     kXkXkXkXkXkXkXkXkXkXkXkXkXkXkXkXkX",
"kXkXkXkXkXkXkXkXkXkXkXkXkXkXkXkXX           kXkXkXkXkX  .       X kXkXkXkXkXkXkXkXkXkXkXkXkXkXkXkXkX",
"kXkXkXkXkXkXkXkXkXkXkXkXkXkXkXkXkX        . kXkXkXkXkX.         kXkXkXkXkXkXkXkXkXkXkXkXkXkXkXkXkXkX",
"kXkXkXkXkXkXkXkXkXkXkXkXkXkXkXkXkXkXkXkXkXkXkXkXkXkXkXkXkXkXkXkXkXkXkXkXkXkXkXkXkXkXkXkXkXkXkXkXkXkX",
"kXkXkXkXkXkXkXkXkXkXkXkXkXkXkXkXkXkXkXkXkXkXkXkXkXkXkXkXkXkXkXkXkXkXkXkXkXkXkXkXkXkXkXkXkXkXkXkXkXkX",
"kXkXkXkXkXkXkXkXkXkXkXkXkXkXkXkXkXkXkXkXkXkXkXkXkXkXkXkXkXkXkXkXkXkXkXkXkXkXkXkXkXkXkXkXkXkXkXkXkXkX",
"kXkXkXkXkXkXkXkXkXkXkXkXkXkXkXkXkXkXkXkXkXkXkXkXkXkXkXkXkXkXkXkXkXkXkXkXkXkXkXkXkXkXkXkXkXkXkXkXkXkX",
"kXkXkXkXkXkXkXkXkXkXkXkXkXkXkXkXkXkXkXkXkXkXkXkXkXkXkXkXkXkXkXkXkXkXkXkXkXkXkXkXkXkXkXkXkXkXkXkXkXkX",
"kXkXkXkXkXkXkXkXkXkXkXkXkXkXkXkXkXkXkXkXkXkXkXkXkXkXkXkXkXkXkXkXkXkXkXkXkXkXkXkXkXkXkXkXkXkXkXkXkXkX"
};
