/* XPM */
static char *result[] = {
/* columns rows colors chars-per-pixel */
"50 50 225 2 ",
"   c #6D4C41",
".  c #6C4B40",
"X  c #604238",
"o  c #5C3F36",
"O  c #5D4037",
"+  c #533831",
"@  c #4D332D",
"#  c #4E342E",
"$  c #5A3D35",
"%  c #68483E",
"&  c #5B3E35",
"*  c #4F352F",
"=  c #422A26",
"-  c #3D2622",
";  c #472E29",
":  c #64453B",
">  c #543831",
",  c #6B4A3F",
"<  c #5D4036",
"1  c #6A493F",
"2  c #5F4238",
"3  c #5B3E36",
"4  c #593D35",
"5  c #5E433B",
"6  c #5E433A",
"7  c #5D4239",
"8  c #593D34",
"9  c #4F352E",
"0  c #442C27",
"q  c #3F2824",
"w  c #482F2A",
"e  c #63443A",
"r  c #4C322D",
"t  c #523730",
"y  c #543932",
"u  c #4B312B",
"i  c #432B26",
"p  c #442B26",
"a  c #4A302B",
"s  c #553932",
"d  c #5F4138",
"f  c #644D46",
"g  c #6F6967",
"h  c #706B69",
"j  c #675E5B",
"k  c #462F2B",
"l  c #452C27",
"z  c #4C332D",
"x  c #62433A",
"c  c #67473D",
"v  c #66473D",
"b  c #563A32",
"n  c #563B33",
"m  c #51362F",
"M  c #604239",
"N  c #573B33",
"B  c #412A25",
"V  c #412925",
"C  c #422A25",
"Z  c #462D28",
"A  c #472E28",
"S  c #5C3F35",
"D  c #634F48",
"F  c #747474",
"G  c #767676",
"H  c #6A6665",
"J  c #412B27",
"K  c #4B322C",
"L  c #3E2723",
"P  c #5B3F36",
"I  c #5C3E35",
"U  c #634E48",
"Y  c #737272",
"T  c #696463",
"R  c #412C28",
"E  c #3E2622",
"W  c #402824",
"Q  c #50352F",
"!  c #66463D",
"~  c #6B4B40",
"^  c #614339",
"/  c #5C3F37",
"(  c #65463C",
")  c #3F2723",
"_  c #62443A",
"`  c #553A32",
"'  c #49302A",
"]  c #533730",
"[  c #5D3F37",
"{  c #543B35",
"}  c #594641",
"|  c #594642",
" . c #56423D",
".. c #4A312C",
"X. c #4C322C",
"o. c #63443B",
"O. c #593C35",
"+. c #563A33",
"@. c #462E28",
"#. c #5E4038",
"$. c #4A312B",
"%. c #6B4A40",
"&. c #6E4C41",
"*. c #614239",
"=. c #4D322C",
"-. c #69493F",
";. c #452D28",
":. c #3C2522",
">. c #553931",
",. c #513630",
"<. c #69493E",
"1. c #63463C",
"2. c #655753",
"3. c #655B59",
"4. c #655B58",
"5. c #624942",
"6. c #5D3F36",
"7. c #442B27",
"8. c #50362F",
"9. c #583C34",
"0. c #767677",
"q. c gray46",
"w. c #6F5850",
"e. c #6D4B40",
"r. c #5E4138",
"t. c #757676",
"y. c #757474",
"u. c #6E4D41",
"i. c #65453B",
"p. c #5D4138",
"a. c #60504C",
"s. c #615451",
"d. c #634A42",
"f. c #593C34",
"g. c #4D332C",
"h. c #50352E",
"j. c #5E4B46",
"k. c #695B56",
"l. c #695A56",
"z. c #634D46",
"x. c #5E4037",
"c. c #4E332D",
"v. c #3C2622",
"b. c #655C59",
"n. c #402924",
"m. c #665C5A",
"M. c #767777",
"N. c #615552",
"B. c #432B27",
"V. c #4B312C",
"C. c #584945",
"Z. c #5F5755",
"A. c #564541",
"S. c #533830",
"D. c #58413B",
"F. c #59423C",
"G. c #615350",
"H. c #655A58",
"J. c #62514D",
"K. c #645652",
"L. c #67483D",
"P. c #6A4A3F",
"I. c #64463D",
"U. c #5D4139",
"Y. c #5E4137",
"T. c #65463B",
"R. c #5A3E35",
"E. c #543931",
"W. c #3F2823",
"Q. c #482F29",
"!. c #4F342E",
"~. c #65453C",
"^. c #402925",
"/. c #4E352F",
"(. c #492F2A",
"). c #634C44",
"_. c #69615F",
"`. c #6A6261",
"'. c #665A57",
"]. c #583D36",
"[. c #4D332E",
"{. c #634F49",
"}. c #6D6967",
"|. c #503732",
" X c #747373",
".X c #6D6867",
"XX c #503832",
"oX c #5D423A",
"OX c #5F5351",
"+X c #5F5655",
"@X c #5F5553",
"#X c #624840",
"$X c #4A302A",
"%X c #5D433C",
"&X c #5D4D49",
"*X c #5D4D4A",
"=X c #584642",
"-X c #452E29",
";X c #60463E",
":X c #726F6E",
">X c #747272",
",X c #614A43",
"<X c #563D36",
"1X c #60514D",
"2X c #60524F",
"3X c #573F38",
"4X c #563932",
"5X c #61433A",
"6X c #66473C",
"7X c #573A33",
"8X c #4C322B",
"9X c #422B26",
"0X c #472F29",
"qX c #5C3E36",
"wX c #47302B",
"eX c #55403B",
"rX c #55413C",
"tX c #513C37",
"yX c #574440",
"uX c #716F6F",
"iX c #737171",
"pX c #6B6463",
"aX c #4F3731",
"sX c #4D342E",
"dX c white",
/* pixels */
"    . X o O O O O + @ # # # @ $     % O o O O O & * @ # # # @ = - - ; # # # # @ $     : # @ > ,     ",
"    . X o O O O O + @ # # # @ $     % < o o O O & * @ @ @ @ @ = - - ; # # @ @ @ $     : # @ > ,     ",
", , 1 2 o o 3 & & + @ # # # @ 4 . . % 5 6 7 3 & 8 9 @ # 9 * 9 0 q q w # @ # * 9 $ . . e @ r t % 1 1 ",
"> > y & O o u i p a # # # # @ s X d f g h j k i l z @ 9 x c v 3 b n m @ @ $ c c : X M N B V C Z A A ",
"@ @ # 4 O o Z - - ; # # @ @ @ + o S D F G H J - q K @ * c     x O O > @ @ O     v o O + L - - - - - ",
"# # 9 4 o P A - L ; @ @ # # # > o I U Y F T R E W r # Q ! . ~ ^ o o + @ @ / . . ( o o + q ) L L L L ",
": : _ ` t t K ' ' l = C ] : : [ t t { } |  ...' X.M : o.O.+.+.+ t t * @ # X.u u ' @.Z @ #.d & $.' ' ",
"    %.+ @ @ # # # 0 - - s &.&.*.@ @ @ =.=.@ # # t -.  %.+ @ @ @ @ @ @ # # ;.- - - - :.u . &.c Q # # ",
"    , > @ @ @ @ @ 0 - - >.    M @ # # # # @ @ @ ,.<.  , > @ @ @ # # @ @ # ;.- - - - - u ~   v * @ # ",
"e e 1.2.3.4.5.M M m ; ; $     6.0 7.; @ @ ,.d M *._ e _ 8 N n 8.@ @ + N N 9.$ $ $ $ $ 6.e o.d 9 @ # ",
"o o 6 h 0.q.w.e.  $ @ @ O     $ - - = @ @ > %.  %.r.o o O O o t @ @ N O O ( &.      &.% O o 4 # @ # ",
"O o 6 h t.y.w.e.  4 @ @ O &.u.$ - - C @ @ > %.  %.r.o O O O O t @ @ b o S i.          % O O $ # @ # ",
"O o p.a.s.s.d.i.( M [ O f.>.s t g.g.@ @ @ m o O O O O o h.g.@ @ # @ j.k.l.z.[ [ M ( ( x.c.g.@ @ # # ",
"O O o h.=.@ 9.O o v   &.>.:.v.' O O f.# @ @ @ @ 9 & O & i - - ' # @ b.0.t.s.=.@ + o O + L - n.z # # ",
"O O o m # # 9.O o v     >.- - ' O O 9.# # # # # Q 3 O 3 i - L ' # @ m.M.M.N.g.@ + O O > L - n.X.@ @ ",
"N N b $.; w n O o _ v c s i B.@ O O n w ; ; ; ; w 9 m h.@.7.0 V.# @ C.Z.Z.A.@ @ ,.N N m 0 B.w 9.$ $ ",
"@ # z V - L > O O o o O ` @ @ + O O > L - - - - - - - L $.# # # # # 7.- - ;.# # @ @ @ @ # @ > ,     ",
"@ @ r n.- L > O O O O O s =.=.S.O O > L - - - - - - - L $.# @ @ @ @ i v.- ;.# # @ @ @ @ # @ > ,     ",
"+.+.s Z C i t f.9.9.9.9.D.| | F.9.f.t i = 0 $.u u u u u @ # # > N +.9 u u X.# @ * t t m # @ + v % % ",
". . 1 + @ @ # # # # # @ G.F F H.# # # @ @ + 1 . ~ ~ . 1 + @ # o.. . . ~ . / @ @ + o o 9.# @ m o O O ",
"    %.> @ # @ @ @ @ @ =.s.t.0.b.@ @ @ # @ > %.        , > @ # :           O @ @ + O O 9.# @ 8.o O o ",
"v c ( t @ # t > > > > S.J.h h K.8.8.Q # @ t ( c c <.1 L.8.$.V.M P.-.-.-.1 3 @ @ t $ $ N m 8.+ o O O ",
"* * * # @ # _ %., , , , I.6 6 U.o o 9.# @ # * * ,.o x.o l L q >.Y.x.x.x.x.b @ @ # # # t P o o o O O ",
"@ @ @ @ @ # :           T.o 6.6.O O 9.# @ # # @ * & O & i - L + O o O O O ` @ # @ @ @ t o O O O O O ",
"* * * # @ # ^ <.<.1 , , e R.& P O O 9.# # @ X.K @ 8 3 8 @.V C >.O O P & 3 E.@ # # # @ m f.f.8 & & & ",
"& & $ 8.@ # 8.,.,.4 d d N 9 9 y O O 9.# # V.n.q B @ * Q N 8 8 P O O y 9 * # @ # # # # $.C V 0 # * * ",
"O O o 8.@ @ @ @ @ N O O s @ @ + O O 9.# # $.L - q K @ # $ O O O O O + @ @ @ @ @ @ @ # ' L - n.r @ @ ",
"o o & ,.# # @ z z b o o s @ @ + & & N @ @ a q L n.X.# # 8 o o o o o + @ @ # * * * * Q u W.L C # Q * ",
"8.8.,.9.$ 8 Q.n.V $.m 8.9 @ # a p p i V V i a $.V.@ # # Q 8.8.8.8.8.!.@ @ $ c v v v c r.V.$.Q ~.c v ",
"@ @ # $ O o @.- - ; # @ @ @ # ; - - - - - ^.@ # # # # # @ @ @ @ @ @ @ # @ O           : # @ > %.    ",
"# @ # $ O o A - L w # # # # # w L L L ) L C @ # # @ @ @ # # # # # # # @ @ [   . . .   : * /.y P.. . ",
"# @ # $ O o !.' ' O.: : : : : O.' (.9 d d x.f.9.b l C 0 [ : : : : : 9 C C t x ^ ^ ^ *.)._.`.'.].+.+.",
"[.@ # $ O o t # # *.&.      &.*.# @ N   &.P.x.O 8 V - n.: &.        h.v.- g.O o o o I {.y.0.}.|.@ @ ",
"@ @ # $ O o t @ @ M           M @ @ +..   -.x.O f.V - n.o.          h.- - @ O O O O S D  Xt..XXX@ # ",
"N N n E.+ + * @ @ R.o.e e e e x M *.r.$ $ $ o o oXOX+X@X#Xe e e e e t ; ; w $X' m O 6.%X&X*X=X-X7.0 ",
"O O o 8.@ @ @ # @ n o o o o o e   &.: # @ 8.o o ;X:XM.>X,Xo o o o o + # # ;.- v.' O O 9.g.=.$XL - - ",
"O O o m # # @ @ @ N O O O / o e     : # @ 8.o 6.;X:Xt.>X,Xo O O O O + @ # ;.- - $XO O 9.@ @ $.L - - ",
"` ` E.(.;.Z m ` ` ` ` s 8 O o X ( ( _ O O 3 b s <X1Xs.2X3Xs ` ` ` ` 8.@ # a ;.;.X.` s N [ O 3 4X>.s ",
"@ @ z ^.- L > O O + @ @ s O O o o o ^     c * @ @ @ @ @ @ @ @ @ @ @ @ # @ # # # # @ @ +..           ",
"# # z n.- L > O O + @ @ ` O O O O < 5X.   c * @ @ @ # # # # # @ @ @ @ # # # @ # @ @ z +..           ",
"# # @ $.$X$XS.N N ,.@ @ t N N N N n 3 6Xc e s + + # @ @ w ; Q.y $ $ # ; ; $.# @ t $ 4 O 6Xv v v v v ",
"# @ # $ O o t @ @ @ # # @ @ @ @ @ @ t o o o O O & * @ z V - ) d     h.- - ;.# @ $     % O o o o o o ",
"@ @ # $ O o t # # @ @ @ @ # @ # # # t o O O O O 3 9 @ X.W v.L d u.  h.:.- ;.# @ $     % O o / / / / ",
"t t t N 9.9.@ ' ' ,.N 7Xt @ # X.' ' @ 9.9.N E.> E.+.+.b @ u 8X6.: : t Z @.$.# @ +.: : x O o O O O O ",
"o o P m # @ 9XL L $   . [ @ # 0XL L 9X@ # V.q L p v . . . ~ , N # # n o o s @ @ # # # t o O O O O O ",
"O O o 8.@ @ C - - $ &.  O @ # ; - - C =.@ a L - i c         . +.@ @ N O O ` @ @ @ @ @ t o O O O O O ",
"O O o 8.@ @ (.A A qXP.1 O 8.m $.V n.wXeXrXtX9Xn.Z : 1 -.-.-.<.` @ @ s $ $ ` 8.8.8.8.8.+ 4 $ 8 N n n ",
"O O o 8.@ # x P.1 _ O x.O o o b z X.yXuXiXpXaXX.!.P x.x.x.x.O t @ sX# # # ` o o o o o 9.!.!.X.n.q q ",
"O O o 8.@ # :     e o o O O O N # =.|  Xt..XXX@ * & O o o o o t @ # @ @ @ ` O O O O O 9.# # $.L - - ",
"O O o 8.@ # :     e o O O O O N @ =.|  Xq..XXX@ * & O O O O o t @ # # # @ ` O O O O O 9.# # $.) - L "
};
